<mxfile host="app.diagrams.net" modified="2021-01-16T12:46:01.577Z" agent="5.0 (Windows NT 10.0; Win64; x64) AppleWebKit/537.36 (KHTML, like Gecko) Chrome/87.0.4280.141 Safari/537.36 Edg/87.0.664.75" etag="wo_Gf6JatC5McqtT-SMx" version="14.2.4" type="github">
  <diagram id="2aBXrv4Brslgl2WKDOWG" name="Page-1">
    <mxGraphModel dx="1806" dy="559" grid="1" gridSize="10" guides="1" tooltips="1" connect="1" arrows="1" fold="1" page="1" pageScale="1" pageWidth="827" pageHeight="1169" math="0" shadow="0">
      <root>
        <mxCell id="0" />
        <mxCell id="1" parent="0" />
        <mxCell id="QSAhAxPXNk1GhNvLcbJa-1" value="" style="shape=partialRectangle;whiteSpace=wrap;html=1;left=0;right=0;fillColor=none;rounded=1;sketch=1;strokeColor=#DDA15E;fontColor=#FEFAE0;" vertex="1" parent="1">
          <mxGeometry x="570" y="705" width="380" height="90" as="geometry" />
        </mxCell>
        <mxCell id="QSAhAxPXNk1GhNvLcbJa-2" value="0" style="whiteSpace=wrap;html=1;rounded=1;sketch=1;labelBackgroundColor=none;fillColor=#60a917;strokeColor=#2D7600;fontColor=#ffffff;" vertex="1" parent="1">
          <mxGeometry x="60" y="190" width="40" height="40" as="geometry" />
        </mxCell>
        <mxCell id="QSAhAxPXNk1GhNvLcbJa-3" value="" style="whiteSpace=wrap;html=1;fontColor=#ffffff;rounded=1;sketch=1;labelBackgroundColor=none;fillColor=#0C4966;strokeColor=#00A0FF;" vertex="1" parent="1">
          <mxGeometry x="100" y="190" width="40" height="40" as="geometry" />
        </mxCell>
        <mxCell id="QSAhAxPXNk1GhNvLcbJa-4" value="" style="whiteSpace=wrap;html=1;fontColor=#ffffff;rounded=1;sketch=1;labelBackgroundColor=none;fillColor=#0C4966;strokeColor=#00A0FF;" vertex="1" parent="1">
          <mxGeometry x="140" y="190" width="40" height="40" as="geometry" />
        </mxCell>
        <mxCell id="QSAhAxPXNk1GhNvLcbJa-5" value="" style="whiteSpace=wrap;html=1;fontColor=#ffffff;rounded=1;sketch=1;labelBackgroundColor=none;fillColor=#0C4966;strokeColor=#00A0FF;" vertex="1" parent="1">
          <mxGeometry x="180" y="190" width="40" height="40" as="geometry" />
        </mxCell>
        <mxCell id="QSAhAxPXNk1GhNvLcbJa-6" value="" style="whiteSpace=wrap;html=1;fontColor=#ffffff;rounded=1;sketch=1;labelBackgroundColor=none;fillColor=#0C4966;strokeColor=#00A0FF;" vertex="1" parent="1">
          <mxGeometry x="220" y="190" width="40" height="40" as="geometry" />
        </mxCell>
        <mxCell id="QSAhAxPXNk1GhNvLcbJa-7" value="" style="whiteSpace=wrap;html=1;fontColor=#ffffff;rounded=1;sketch=1;labelBackgroundColor=none;fillColor=#0C4966;strokeColor=#00A0FF;" vertex="1" parent="1">
          <mxGeometry x="260" y="190" width="40" height="40" as="geometry" />
        </mxCell>
        <mxCell id="QSAhAxPXNk1GhNvLcbJa-8" value="" style="whiteSpace=wrap;html=1;fontColor=#ffffff;rounded=1;sketch=1;labelBackgroundColor=none;fillColor=#0C4966;strokeColor=#00A0FF;" vertex="1" parent="1">
          <mxGeometry x="300" y="190" width="40" height="40" as="geometry" />
        </mxCell>
        <mxCell id="QSAhAxPXNk1GhNvLcbJa-9" value="" style="whiteSpace=wrap;html=1;fontColor=#ffffff;rounded=1;sketch=1;labelBackgroundColor=none;fillColor=#0C4966;strokeColor=#00A0FF;" vertex="1" parent="1">
          <mxGeometry x="340" y="190" width="40" height="40" as="geometry" />
        </mxCell>
        <mxCell id="QSAhAxPXNk1GhNvLcbJa-10" value="" style="whiteSpace=wrap;html=1;fontColor=#ffffff;rounded=1;sketch=1;labelBackgroundColor=none;fillColor=#0C4966;strokeColor=#00A0FF;" vertex="1" parent="1">
          <mxGeometry x="380" y="190" width="40" height="40" as="geometry" />
        </mxCell>
        <mxCell id="QSAhAxPXNk1GhNvLcbJa-11" value="" style="whiteSpace=wrap;html=1;fontColor=#ffffff;rounded=1;sketch=1;labelBackgroundColor=none;fillColor=#0C4966;strokeColor=#00A0FF;" vertex="1" parent="1">
          <mxGeometry x="420" y="190" width="40" height="40" as="geometry" />
        </mxCell>
        <mxCell id="QSAhAxPXNk1GhNvLcbJa-12" value="" style="whiteSpace=wrap;html=1;fontColor=#ffffff;rounded=1;sketch=1;labelBackgroundColor=none;fillColor=#0C4966;strokeColor=#00A0FF;" vertex="1" parent="1">
          <mxGeometry x="60" y="230" width="40" height="40" as="geometry" />
        </mxCell>
        <mxCell id="QSAhAxPXNk1GhNvLcbJa-13" value="" style="whiteSpace=wrap;html=1;fontColor=#ffffff;rounded=1;sketch=1;labelBackgroundColor=none;fillColor=#0C4966;strokeColor=#00A0FF;" vertex="1" parent="1">
          <mxGeometry x="100" y="230" width="40" height="40" as="geometry" />
        </mxCell>
        <mxCell id="QSAhAxPXNk1GhNvLcbJa-14" value="" style="whiteSpace=wrap;html=1;fontColor=#ffffff;rounded=1;sketch=1;labelBackgroundColor=none;fillColor=#0C4966;strokeColor=#00A0FF;" vertex="1" parent="1">
          <mxGeometry x="140" y="230" width="40" height="40" as="geometry" />
        </mxCell>
        <mxCell id="QSAhAxPXNk1GhNvLcbJa-15" value="" style="whiteSpace=wrap;html=1;fontColor=#ffffff;rounded=1;sketch=1;labelBackgroundColor=none;fillColor=#0C4966;strokeColor=#00A0FF;" vertex="1" parent="1">
          <mxGeometry x="180" y="230" width="40" height="40" as="geometry" />
        </mxCell>
        <mxCell id="QSAhAxPXNk1GhNvLcbJa-16" value="" style="whiteSpace=wrap;html=1;fontColor=#ffffff;rounded=1;sketch=1;labelBackgroundColor=none;fillColor=#0C4966;strokeColor=#00A0FF;" vertex="1" parent="1">
          <mxGeometry x="220" y="230" width="40" height="40" as="geometry" />
        </mxCell>
        <mxCell id="QSAhAxPXNk1GhNvLcbJa-17" value="" style="whiteSpace=wrap;html=1;fontColor=#ffffff;rounded=1;sketch=1;labelBackgroundColor=none;fillColor=#0C4966;strokeColor=#00A0FF;" vertex="1" parent="1">
          <mxGeometry x="260" y="230" width="40" height="40" as="geometry" />
        </mxCell>
        <mxCell id="QSAhAxPXNk1GhNvLcbJa-18" value="" style="whiteSpace=wrap;html=1;fontColor=#ffffff;rounded=1;sketch=1;labelBackgroundColor=none;fillColor=#0C4966;strokeColor=#00A0FF;" vertex="1" parent="1">
          <mxGeometry x="300" y="230" width="40" height="40" as="geometry" />
        </mxCell>
        <mxCell id="QSAhAxPXNk1GhNvLcbJa-19" value="" style="whiteSpace=wrap;html=1;fontColor=#ffffff;rounded=1;sketch=1;labelBackgroundColor=none;fillColor=#0C4966;strokeColor=#00A0FF;" vertex="1" parent="1">
          <mxGeometry x="340" y="230" width="40" height="40" as="geometry" />
        </mxCell>
        <mxCell id="QSAhAxPXNk1GhNvLcbJa-20" value="" style="whiteSpace=wrap;html=1;fontColor=#ffffff;rounded=1;sketch=1;labelBackgroundColor=none;fillColor=#0C4966;strokeColor=#00A0FF;" vertex="1" parent="1">
          <mxGeometry x="380" y="230" width="40" height="40" as="geometry" />
        </mxCell>
        <mxCell id="QSAhAxPXNk1GhNvLcbJa-21" value="" style="whiteSpace=wrap;html=1;fontColor=#ffffff;rounded=1;sketch=1;labelBackgroundColor=none;fillColor=#0C4966;strokeColor=#00A0FF;" vertex="1" parent="1">
          <mxGeometry x="420" y="230" width="40" height="40" as="geometry" />
        </mxCell>
        <mxCell id="QSAhAxPXNk1GhNvLcbJa-22" value="" style="whiteSpace=wrap;html=1;fontColor=#ffffff;rounded=1;sketch=1;labelBackgroundColor=none;fillColor=#0C4966;strokeColor=#00A0FF;" vertex="1" parent="1">
          <mxGeometry x="60" y="270" width="40" height="40" as="geometry" />
        </mxCell>
        <mxCell id="QSAhAxPXNk1GhNvLcbJa-23" value="" style="whiteSpace=wrap;html=1;fontColor=#ffffff;rounded=1;sketch=1;labelBackgroundColor=none;fillColor=#0C4966;strokeColor=#00A0FF;" vertex="1" parent="1">
          <mxGeometry x="100" y="270" width="40" height="40" as="geometry" />
        </mxCell>
        <mxCell id="QSAhAxPXNk1GhNvLcbJa-24" value="" style="whiteSpace=wrap;html=1;fontColor=#ffffff;rounded=1;sketch=1;labelBackgroundColor=none;fillColor=#0C4966;strokeColor=#00A0FF;" vertex="1" parent="1">
          <mxGeometry x="140" y="270" width="40" height="40" as="geometry" />
        </mxCell>
        <mxCell id="QSAhAxPXNk1GhNvLcbJa-25" value="" style="whiteSpace=wrap;html=1;fontColor=#ffffff;rounded=1;sketch=1;labelBackgroundColor=none;fillColor=#0C4966;strokeColor=#00A0FF;" vertex="1" parent="1">
          <mxGeometry x="180" y="270" width="40" height="40" as="geometry" />
        </mxCell>
        <mxCell id="QSAhAxPXNk1GhNvLcbJa-26" value="" style="whiteSpace=wrap;html=1;fontColor=#ffffff;rounded=1;sketch=1;labelBackgroundColor=none;fillColor=#0C4966;strokeColor=#00A0FF;" vertex="1" parent="1">
          <mxGeometry x="220" y="270" width="40" height="40" as="geometry" />
        </mxCell>
        <mxCell id="QSAhAxPXNk1GhNvLcbJa-27" value="" style="whiteSpace=wrap;html=1;fontColor=#ffffff;rounded=1;sketch=1;labelBackgroundColor=none;fillColor=#0C4966;strokeColor=#00A0FF;" vertex="1" parent="1">
          <mxGeometry x="260" y="270" width="40" height="40" as="geometry" />
        </mxCell>
        <mxCell id="QSAhAxPXNk1GhNvLcbJa-28" value="" style="whiteSpace=wrap;html=1;fontColor=#ffffff;rounded=1;sketch=1;labelBackgroundColor=none;fillColor=#0C4966;strokeColor=#00A0FF;" vertex="1" parent="1">
          <mxGeometry x="300" y="270" width="40" height="40" as="geometry" />
        </mxCell>
        <mxCell id="QSAhAxPXNk1GhNvLcbJa-29" value="" style="whiteSpace=wrap;html=1;fontColor=#ffffff;rounded=1;sketch=1;labelBackgroundColor=none;fillColor=#0C4966;strokeColor=#00A0FF;" vertex="1" parent="1">
          <mxGeometry x="340" y="270" width="40" height="40" as="geometry" />
        </mxCell>
        <mxCell id="QSAhAxPXNk1GhNvLcbJa-30" value="" style="whiteSpace=wrap;html=1;fontColor=#ffffff;rounded=1;sketch=1;labelBackgroundColor=none;fillColor=#0C4966;strokeColor=#00A0FF;" vertex="1" parent="1">
          <mxGeometry x="380" y="270" width="40" height="40" as="geometry" />
        </mxCell>
        <mxCell id="QSAhAxPXNk1GhNvLcbJa-31" value="" style="whiteSpace=wrap;html=1;fontColor=#ffffff;rounded=1;sketch=1;labelBackgroundColor=none;fillColor=#0C4966;strokeColor=#00A0FF;" vertex="1" parent="1">
          <mxGeometry x="420" y="270" width="40" height="40" as="geometry" />
        </mxCell>
        <mxCell id="QSAhAxPXNk1GhNvLcbJa-32" value="" style="whiteSpace=wrap;html=1;fontColor=#ffffff;rounded=1;sketch=1;labelBackgroundColor=none;fillColor=#0C4966;strokeColor=#00A0FF;" vertex="1" parent="1">
          <mxGeometry x="60" y="310" width="40" height="40" as="geometry" />
        </mxCell>
        <mxCell id="QSAhAxPXNk1GhNvLcbJa-33" value="" style="whiteSpace=wrap;html=1;fontColor=#ffffff;rounded=1;sketch=1;labelBackgroundColor=none;fillColor=#0C4966;strokeColor=#00A0FF;" vertex="1" parent="1">
          <mxGeometry x="100" y="310" width="40" height="40" as="geometry" />
        </mxCell>
        <mxCell id="QSAhAxPXNk1GhNvLcbJa-34" value="" style="whiteSpace=wrap;html=1;fontColor=#ffffff;rounded=1;sketch=1;labelBackgroundColor=none;fillColor=#0C4966;strokeColor=#00A0FF;" vertex="1" parent="1">
          <mxGeometry x="140" y="310" width="40" height="40" as="geometry" />
        </mxCell>
        <mxCell id="QSAhAxPXNk1GhNvLcbJa-35" value="" style="whiteSpace=wrap;html=1;fontColor=#ffffff;rounded=1;sketch=1;labelBackgroundColor=none;fillColor=#0C4966;strokeColor=#00A0FF;" vertex="1" parent="1">
          <mxGeometry x="180" y="310" width="40" height="40" as="geometry" />
        </mxCell>
        <mxCell id="QSAhAxPXNk1GhNvLcbJa-36" value="" style="whiteSpace=wrap;html=1;fontColor=#ffffff;rounded=1;sketch=1;labelBackgroundColor=none;fillColor=#0C4966;strokeColor=#00A0FF;" vertex="1" parent="1">
          <mxGeometry x="220" y="310" width="40" height="40" as="geometry" />
        </mxCell>
        <mxCell id="QSAhAxPXNk1GhNvLcbJa-37" value="" style="whiteSpace=wrap;html=1;fontColor=#ffffff;rounded=1;sketch=1;labelBackgroundColor=none;fillColor=#0C4966;strokeColor=#00A0FF;" vertex="1" parent="1">
          <mxGeometry x="260" y="310" width="40" height="40" as="geometry" />
        </mxCell>
        <mxCell id="QSAhAxPXNk1GhNvLcbJa-38" value="" style="whiteSpace=wrap;html=1;fontColor=#ffffff;rounded=1;sketch=1;labelBackgroundColor=none;fillColor=#0C4966;strokeColor=#00A0FF;" vertex="1" parent="1">
          <mxGeometry x="300" y="310" width="40" height="40" as="geometry" />
        </mxCell>
        <mxCell id="QSAhAxPXNk1GhNvLcbJa-39" value="" style="whiteSpace=wrap;html=1;fontColor=#ffffff;rounded=1;sketch=1;labelBackgroundColor=none;fillColor=#0C4966;strokeColor=#00A0FF;" vertex="1" parent="1">
          <mxGeometry x="340" y="310" width="40" height="40" as="geometry" />
        </mxCell>
        <mxCell id="QSAhAxPXNk1GhNvLcbJa-40" value="" style="whiteSpace=wrap;html=1;fontColor=#ffffff;rounded=1;sketch=1;labelBackgroundColor=none;fillColor=#0C4966;strokeColor=#00A0FF;" vertex="1" parent="1">
          <mxGeometry x="380" y="310" width="40" height="40" as="geometry" />
        </mxCell>
        <mxCell id="QSAhAxPXNk1GhNvLcbJa-41" value="" style="whiteSpace=wrap;html=1;fontColor=#ffffff;rounded=1;sketch=1;labelBackgroundColor=none;fillColor=#0C4966;strokeColor=#00A0FF;" vertex="1" parent="1">
          <mxGeometry x="420" y="310" width="40" height="40" as="geometry" />
        </mxCell>
        <mxCell id="QSAhAxPXNk1GhNvLcbJa-42" value="0" style="whiteSpace=wrap;html=1;rounded=1;sketch=1;labelBackgroundColor=none;fillColor=#60a917;strokeColor=#2D7600;fontColor=#ffffff;" vertex="1" parent="1">
          <mxGeometry x="60" y="390" width="40" height="40" as="geometry" />
        </mxCell>
        <mxCell id="QSAhAxPXNk1GhNvLcbJa-43" style="edgeStyle=orthogonalEdgeStyle;curved=1;rounded=1;sketch=1;orthogonalLoop=1;jettySize=auto;html=1;exitX=0.5;exitY=0;exitDx=0;exitDy=0;entryX=0.5;entryY=0;entryDx=0;entryDy=0;strokeColor=#028090;fillColor=#F45B69;fontColor=#E4FDE1;" edge="1" parent="1" source="QSAhAxPXNk1GhNvLcbJa-44" target="QSAhAxPXNk1GhNvLcbJa-88">
          <mxGeometry relative="1" as="geometry">
            <Array as="points">
              <mxPoint x="120" y="320" />
              <mxPoint x="930" y="320" />
            </Array>
          </mxGeometry>
        </mxCell>
        <mxCell id="QSAhAxPXNk1GhNvLcbJa-44" value="1" style="whiteSpace=wrap;html=1;fontColor=#ffffff;rounded=1;sketch=1;labelBackgroundColor=none;fillColor=#d80073;strokeColor=#A50040;" vertex="1" parent="1">
          <mxGeometry x="100" y="390" width="40" height="40" as="geometry" />
        </mxCell>
        <mxCell id="QSAhAxPXNk1GhNvLcbJa-45" value="" style="whiteSpace=wrap;html=1;fontColor=#ffffff;rounded=1;sketch=1;labelBackgroundColor=none;fillColor=#0C4966;strokeColor=#00A0FF;" vertex="1" parent="1">
          <mxGeometry x="140" y="390" width="40" height="40" as="geometry" />
        </mxCell>
        <mxCell id="QSAhAxPXNk1GhNvLcbJa-46" value="" style="whiteSpace=wrap;html=1;fontColor=#ffffff;rounded=1;sketch=1;labelBackgroundColor=none;fillColor=#0C4966;strokeColor=#00A0FF;" vertex="1" parent="1">
          <mxGeometry x="180" y="390" width="40" height="40" as="geometry" />
        </mxCell>
        <mxCell id="QSAhAxPXNk1GhNvLcbJa-47" value="" style="whiteSpace=wrap;html=1;fontColor=#ffffff;rounded=1;sketch=1;labelBackgroundColor=none;fillColor=#0C4966;strokeColor=#00A0FF;" vertex="1" parent="1">
          <mxGeometry x="220" y="390" width="40" height="40" as="geometry" />
        </mxCell>
        <mxCell id="QSAhAxPXNk1GhNvLcbJa-48" value="" style="whiteSpace=wrap;html=1;fontColor=#ffffff;rounded=1;sketch=1;labelBackgroundColor=none;fillColor=#0C4966;strokeColor=#00A0FF;" vertex="1" parent="1">
          <mxGeometry x="260" y="390" width="40" height="40" as="geometry" />
        </mxCell>
        <mxCell id="QSAhAxPXNk1GhNvLcbJa-49" value="" style="whiteSpace=wrap;html=1;fontColor=#ffffff;rounded=1;sketch=1;labelBackgroundColor=none;fillColor=#0C4966;strokeColor=#00A0FF;" vertex="1" parent="1">
          <mxGeometry x="300" y="390" width="40" height="40" as="geometry" />
        </mxCell>
        <mxCell id="QSAhAxPXNk1GhNvLcbJa-50" value="" style="whiteSpace=wrap;html=1;fontColor=#ffffff;rounded=1;sketch=1;labelBackgroundColor=none;fillColor=#0C4966;strokeColor=#00A0FF;" vertex="1" parent="1">
          <mxGeometry x="340" y="390" width="40" height="40" as="geometry" />
        </mxCell>
        <mxCell id="QSAhAxPXNk1GhNvLcbJa-51" value="" style="whiteSpace=wrap;html=1;fontColor=#ffffff;rounded=1;sketch=1;labelBackgroundColor=none;fillColor=#0C4966;strokeColor=#00A0FF;" vertex="1" parent="1">
          <mxGeometry x="380" y="390" width="40" height="40" as="geometry" />
        </mxCell>
        <mxCell id="QSAhAxPXNk1GhNvLcbJa-52" value="" style="whiteSpace=wrap;html=1;fontColor=#ffffff;rounded=1;sketch=1;labelBackgroundColor=none;fillColor=#0C4966;strokeColor=#00A0FF;" vertex="1" parent="1">
          <mxGeometry x="420" y="390" width="40" height="40" as="geometry" />
        </mxCell>
        <mxCell id="QSAhAxPXNk1GhNvLcbJa-53" style="edgeStyle=orthogonalEdgeStyle;curved=1;rounded=1;sketch=1;orthogonalLoop=1;jettySize=auto;html=1;entryX=0.5;entryY=0;entryDx=0;entryDy=0;strokeColor=#028090;fillColor=#F45B69;fontColor=#E4FDE1;exitX=0.5;exitY=0;exitDx=0;exitDy=0;" edge="1" parent="1" source="QSAhAxPXNk1GhNvLcbJa-54" target="QSAhAxPXNk1GhNvLcbJa-89">
          <mxGeometry relative="1" as="geometry">
            <Array as="points">
              <mxPoint x="80" y="360" />
              <mxPoint x="860" y="360" />
            </Array>
          </mxGeometry>
        </mxCell>
        <mxCell id="QSAhAxPXNk1GhNvLcbJa-54" value="1" style="whiteSpace=wrap;html=1;fontColor=#ffffff;rounded=1;sketch=1;labelBackgroundColor=none;fillColor=#d80073;strokeColor=#A50040;" vertex="1" parent="1">
          <mxGeometry x="60" y="430" width="40" height="40" as="geometry" />
        </mxCell>
        <mxCell id="QSAhAxPXNk1GhNvLcbJa-55" value="" style="whiteSpace=wrap;html=1;fontColor=#ffffff;rounded=1;sketch=1;labelBackgroundColor=none;fillColor=#0C4966;strokeColor=#00A0FF;" vertex="1" parent="1">
          <mxGeometry x="100" y="430" width="40" height="40" as="geometry" />
        </mxCell>
        <mxCell id="QSAhAxPXNk1GhNvLcbJa-56" value="" style="whiteSpace=wrap;html=1;fontColor=#ffffff;rounded=1;sketch=1;labelBackgroundColor=none;fillColor=#0C4966;strokeColor=#00A0FF;" vertex="1" parent="1">
          <mxGeometry x="140" y="430" width="40" height="40" as="geometry" />
        </mxCell>
        <mxCell id="QSAhAxPXNk1GhNvLcbJa-57" value="" style="whiteSpace=wrap;html=1;fontColor=#ffffff;rounded=1;sketch=1;labelBackgroundColor=none;fillColor=#0C4966;strokeColor=#00A0FF;" vertex="1" parent="1">
          <mxGeometry x="180" y="430" width="40" height="40" as="geometry" />
        </mxCell>
        <mxCell id="QSAhAxPXNk1GhNvLcbJa-58" value="" style="whiteSpace=wrap;html=1;fontColor=#ffffff;rounded=1;sketch=1;labelBackgroundColor=none;fillColor=#0C4966;strokeColor=#00A0FF;" vertex="1" parent="1">
          <mxGeometry x="220" y="430" width="40" height="40" as="geometry" />
        </mxCell>
        <mxCell id="QSAhAxPXNk1GhNvLcbJa-59" value="" style="whiteSpace=wrap;html=1;fontColor=#ffffff;rounded=1;sketch=1;labelBackgroundColor=none;fillColor=#0C4966;strokeColor=#00A0FF;" vertex="1" parent="1">
          <mxGeometry x="260" y="430" width="40" height="40" as="geometry" />
        </mxCell>
        <mxCell id="QSAhAxPXNk1GhNvLcbJa-60" value="" style="whiteSpace=wrap;html=1;fontColor=#ffffff;rounded=1;sketch=1;labelBackgroundColor=none;fillColor=#0C4966;strokeColor=#00A0FF;" vertex="1" parent="1">
          <mxGeometry x="300" y="430" width="40" height="40" as="geometry" />
        </mxCell>
        <mxCell id="QSAhAxPXNk1GhNvLcbJa-61" value="" style="whiteSpace=wrap;html=1;fontColor=#ffffff;rounded=1;sketch=1;labelBackgroundColor=none;fillColor=#0C4966;strokeColor=#00A0FF;" vertex="1" parent="1">
          <mxGeometry x="340" y="430" width="40" height="40" as="geometry" />
        </mxCell>
        <mxCell id="QSAhAxPXNk1GhNvLcbJa-62" value="" style="whiteSpace=wrap;html=1;fontColor=#ffffff;rounded=1;sketch=1;labelBackgroundColor=none;fillColor=#0C4966;strokeColor=#00A0FF;" vertex="1" parent="1">
          <mxGeometry x="380" y="430" width="40" height="40" as="geometry" />
        </mxCell>
        <mxCell id="QSAhAxPXNk1GhNvLcbJa-63" value="" style="whiteSpace=wrap;html=1;fontColor=#ffffff;rounded=1;sketch=1;labelBackgroundColor=none;fillColor=#0C4966;strokeColor=#00A0FF;" vertex="1" parent="1">
          <mxGeometry x="420" y="430" width="40" height="40" as="geometry" />
        </mxCell>
        <mxCell id="QSAhAxPXNk1GhNvLcbJa-64" value="" style="whiteSpace=wrap;html=1;fontColor=#ffffff;rounded=1;sketch=1;labelBackgroundColor=none;fillColor=#0C4966;strokeColor=#00A0FF;" vertex="1" parent="1">
          <mxGeometry x="60" y="470" width="40" height="40" as="geometry" />
        </mxCell>
        <mxCell id="QSAhAxPXNk1GhNvLcbJa-65" value="" style="whiteSpace=wrap;html=1;fontColor=#ffffff;rounded=1;sketch=1;labelBackgroundColor=none;fillColor=#0C4966;strokeColor=#00A0FF;" vertex="1" parent="1">
          <mxGeometry x="100" y="470" width="40" height="40" as="geometry" />
        </mxCell>
        <mxCell id="QSAhAxPXNk1GhNvLcbJa-66" value="" style="whiteSpace=wrap;html=1;fontColor=#ffffff;rounded=1;sketch=1;labelBackgroundColor=none;fillColor=#0C4966;strokeColor=#00A0FF;" vertex="1" parent="1">
          <mxGeometry x="140" y="470" width="40" height="40" as="geometry" />
        </mxCell>
        <mxCell id="QSAhAxPXNk1GhNvLcbJa-67" value="" style="whiteSpace=wrap;html=1;fontColor=#ffffff;rounded=1;sketch=1;labelBackgroundColor=none;fillColor=#0C4966;strokeColor=#00A0FF;" vertex="1" parent="1">
          <mxGeometry x="180" y="470" width="40" height="40" as="geometry" />
        </mxCell>
        <mxCell id="QSAhAxPXNk1GhNvLcbJa-68" value="" style="whiteSpace=wrap;html=1;fontColor=#ffffff;rounded=1;sketch=1;labelBackgroundColor=none;fillColor=#0C4966;strokeColor=#00A0FF;" vertex="1" parent="1">
          <mxGeometry x="220" y="470" width="40" height="40" as="geometry" />
        </mxCell>
        <mxCell id="QSAhAxPXNk1GhNvLcbJa-69" value="" style="whiteSpace=wrap;html=1;fontColor=#ffffff;rounded=1;sketch=1;labelBackgroundColor=none;fillColor=#0C4966;strokeColor=#00A0FF;" vertex="1" parent="1">
          <mxGeometry x="260" y="470" width="40" height="40" as="geometry" />
        </mxCell>
        <mxCell id="QSAhAxPXNk1GhNvLcbJa-70" value="" style="whiteSpace=wrap;html=1;fontColor=#ffffff;rounded=1;sketch=1;labelBackgroundColor=none;fillColor=#0C4966;strokeColor=#00A0FF;" vertex="1" parent="1">
          <mxGeometry x="300" y="470" width="40" height="40" as="geometry" />
        </mxCell>
        <mxCell id="QSAhAxPXNk1GhNvLcbJa-71" value="" style="whiteSpace=wrap;html=1;fontColor=#ffffff;rounded=1;sketch=1;labelBackgroundColor=none;fillColor=#0C4966;strokeColor=#00A0FF;" vertex="1" parent="1">
          <mxGeometry x="340" y="470" width="40" height="40" as="geometry" />
        </mxCell>
        <mxCell id="QSAhAxPXNk1GhNvLcbJa-72" value="" style="whiteSpace=wrap;html=1;fontColor=#ffffff;rounded=1;sketch=1;labelBackgroundColor=none;fillColor=#0C4966;strokeColor=#00A0FF;" vertex="1" parent="1">
          <mxGeometry x="380" y="470" width="40" height="40" as="geometry" />
        </mxCell>
        <mxCell id="QSAhAxPXNk1GhNvLcbJa-73" value="" style="whiteSpace=wrap;html=1;fontColor=#ffffff;rounded=1;sketch=1;labelBackgroundColor=none;fillColor=#0C4966;strokeColor=#00A0FF;" vertex="1" parent="1">
          <mxGeometry x="420" y="470" width="40" height="40" as="geometry" />
        </mxCell>
        <mxCell id="QSAhAxPXNk1GhNvLcbJa-74" value="" style="whiteSpace=wrap;html=1;fontColor=#ffffff;rounded=1;sketch=1;labelBackgroundColor=none;fillColor=#0C4966;strokeColor=#00A0FF;" vertex="1" parent="1">
          <mxGeometry x="60" y="510" width="40" height="40" as="geometry" />
        </mxCell>
        <mxCell id="QSAhAxPXNk1GhNvLcbJa-75" value="" style="whiteSpace=wrap;html=1;fontColor=#ffffff;rounded=1;sketch=1;labelBackgroundColor=none;fillColor=#0C4966;strokeColor=#00A0FF;" vertex="1" parent="1">
          <mxGeometry x="100" y="510" width="40" height="40" as="geometry" />
        </mxCell>
        <mxCell id="QSAhAxPXNk1GhNvLcbJa-76" value="" style="whiteSpace=wrap;html=1;fontColor=#ffffff;rounded=1;sketch=1;labelBackgroundColor=none;fillColor=#0C4966;strokeColor=#00A0FF;" vertex="1" parent="1">
          <mxGeometry x="140" y="510" width="40" height="40" as="geometry" />
        </mxCell>
        <mxCell id="QSAhAxPXNk1GhNvLcbJa-77" value="" style="whiteSpace=wrap;html=1;fontColor=#ffffff;rounded=1;sketch=1;labelBackgroundColor=none;fillColor=#0C4966;strokeColor=#00A0FF;" vertex="1" parent="1">
          <mxGeometry x="180" y="510" width="40" height="40" as="geometry" />
        </mxCell>
        <mxCell id="QSAhAxPXNk1GhNvLcbJa-78" value="" style="whiteSpace=wrap;html=1;fontColor=#ffffff;rounded=1;sketch=1;labelBackgroundColor=none;fillColor=#0C4966;strokeColor=#00A0FF;" vertex="1" parent="1">
          <mxGeometry x="220" y="510" width="40" height="40" as="geometry" />
        </mxCell>
        <mxCell id="QSAhAxPXNk1GhNvLcbJa-79" value="" style="whiteSpace=wrap;html=1;fontColor=#ffffff;rounded=1;sketch=1;labelBackgroundColor=none;fillColor=#0C4966;strokeColor=#00A0FF;" vertex="1" parent="1">
          <mxGeometry x="260" y="510" width="40" height="40" as="geometry" />
        </mxCell>
        <mxCell id="QSAhAxPXNk1GhNvLcbJa-80" value="" style="whiteSpace=wrap;html=1;fontColor=#ffffff;rounded=1;sketch=1;labelBackgroundColor=none;fillColor=#0C4966;strokeColor=#00A0FF;" vertex="1" parent="1">
          <mxGeometry x="300" y="510" width="40" height="40" as="geometry" />
        </mxCell>
        <mxCell id="QSAhAxPXNk1GhNvLcbJa-81" value="" style="whiteSpace=wrap;html=1;fontColor=#ffffff;rounded=1;sketch=1;labelBackgroundColor=none;fillColor=#0C4966;strokeColor=#00A0FF;" vertex="1" parent="1">
          <mxGeometry x="340" y="510" width="40" height="40" as="geometry" />
        </mxCell>
        <mxCell id="QSAhAxPXNk1GhNvLcbJa-82" value="" style="whiteSpace=wrap;html=1;fontColor=#ffffff;rounded=1;sketch=1;labelBackgroundColor=none;fillColor=#0C4966;strokeColor=#00A0FF;" vertex="1" parent="1">
          <mxGeometry x="380" y="510" width="40" height="40" as="geometry" />
        </mxCell>
        <mxCell id="QSAhAxPXNk1GhNvLcbJa-83" value="" style="whiteSpace=wrap;html=1;fontColor=#ffffff;rounded=1;sketch=1;labelBackgroundColor=none;fillColor=#0C4966;strokeColor=#00A0FF;" vertex="1" parent="1">
          <mxGeometry x="420" y="510" width="40" height="40" as="geometry" />
        </mxCell>
        <mxCell id="QSAhAxPXNk1GhNvLcbJa-84" value="" style="shape=partialRectangle;whiteSpace=wrap;html=1;left=0;right=0;fillColor=none;rounded=1;sketch=1;strokeColor=#DDA15E;fontColor=#FEFAE0;" vertex="1" parent="1">
          <mxGeometry x="580" y="170" width="380" height="80" as="geometry" />
        </mxCell>
        <mxCell id="QSAhAxPXNk1GhNvLcbJa-85" value="0" style="whiteSpace=wrap;html=1;rounded=1;sketch=1;labelBackgroundColor=none;fillColor=#60a917;strokeColor=#2D7600;fontColor=#ffffff;" vertex="1" parent="1">
          <mxGeometry x="970" y="190" width="40" height="40" as="geometry" />
        </mxCell>
        <mxCell id="QSAhAxPXNk1GhNvLcbJa-86" value="" style="shape=partialRectangle;whiteSpace=wrap;html=1;left=0;right=0;fillColor=none;rounded=1;sketch=1;strokeColor=#DDA15E;fontColor=#FEFAE0;" vertex="1" parent="1">
          <mxGeometry x="580" y="365" width="380" height="90" as="geometry" />
        </mxCell>
        <mxCell id="QSAhAxPXNk1GhNvLcbJa-87" value="0" style="whiteSpace=wrap;html=1;rounded=1;sketch=1;labelBackgroundColor=none;fillColor=#60a917;strokeColor=#2D7600;fontColor=#ffffff;" vertex="1" parent="1">
          <mxGeometry x="970" y="390" width="40" height="40" as="geometry" />
        </mxCell>
        <mxCell id="QSAhAxPXNk1GhNvLcbJa-88" value="1" style="whiteSpace=wrap;html=1;fontColor=#ffffff;rounded=1;sketch=1;labelBackgroundColor=none;fillColor=#d80073;strokeColor=#A50040;" vertex="1" parent="1">
          <mxGeometry x="910" y="390" width="40" height="40" as="geometry" />
        </mxCell>
        <mxCell id="QSAhAxPXNk1GhNvLcbJa-89" value="1" style="whiteSpace=wrap;html=1;fontColor=#ffffff;rounded=1;sketch=1;labelBackgroundColor=none;fillColor=#d80073;strokeColor=#A50040;" vertex="1" parent="1">
          <mxGeometry x="840" y="390" width="40" height="40" as="geometry" />
        </mxCell>
        <mxCell id="QSAhAxPXNk1GhNvLcbJa-90" value="0" style="whiteSpace=wrap;html=1;rounded=1;sketch=1;labelBackgroundColor=none;fillColor=#f8cecc;strokeColor=#b85450;fontColor=#FFFFFF;" vertex="1" parent="1">
          <mxGeometry x="50" y="730" width="40" height="40" as="geometry" />
        </mxCell>
        <mxCell id="QSAhAxPXNk1GhNvLcbJa-91" style="edgeStyle=orthogonalEdgeStyle;curved=1;rounded=1;sketch=1;orthogonalLoop=1;jettySize=auto;html=1;exitX=0.5;exitY=0;exitDx=0;exitDy=0;entryX=0.5;entryY=0;entryDx=0;entryDy=0;strokeColor=#028090;fillColor=#F45B69;fontColor=#E4FDE1;" edge="1" parent="1" source="QSAhAxPXNk1GhNvLcbJa-92" target="QSAhAxPXNk1GhNvLcbJa-135">
          <mxGeometry relative="1" as="geometry">
            <Array as="points">
              <mxPoint x="110" y="660" />
              <mxPoint x="1000" y="660" />
            </Array>
          </mxGeometry>
        </mxCell>
        <mxCell id="QSAhAxPXNk1GhNvLcbJa-92" value="1" style="whiteSpace=wrap;html=1;rounded=1;sketch=1;labelBackgroundColor=none;fillColor=#60a917;strokeColor=#2D7600;fontColor=#ffffff;" vertex="1" parent="1">
          <mxGeometry x="90" y="730" width="40" height="40" as="geometry" />
        </mxCell>
        <mxCell id="QSAhAxPXNk1GhNvLcbJa-93" style="edgeStyle=orthogonalEdgeStyle;curved=1;rounded=1;sketch=1;orthogonalLoop=1;jettySize=auto;html=1;strokeColor=#028090;fillColor=#F45B69;fontColor=#E4FDE1;" edge="1" parent="1" source="QSAhAxPXNk1GhNvLcbJa-94" target="QSAhAxPXNk1GhNvLcbJa-137">
          <mxGeometry relative="1" as="geometry">
            <Array as="points">
              <mxPoint x="150" y="700" />
              <mxPoint x="850" y="700" />
            </Array>
          </mxGeometry>
        </mxCell>
        <mxCell id="QSAhAxPXNk1GhNvLcbJa-94" value="2" style="whiteSpace=wrap;html=1;fontColor=#ffffff;rounded=1;sketch=1;labelBackgroundColor=none;fillColor=#d80073;strokeColor=#A50040;" vertex="1" parent="1">
          <mxGeometry x="130" y="730" width="40" height="40" as="geometry" />
        </mxCell>
        <mxCell id="QSAhAxPXNk1GhNvLcbJa-95" value="" style="whiteSpace=wrap;html=1;fontColor=#ffffff;rounded=1;sketch=1;labelBackgroundColor=none;fillColor=#0C4966;strokeColor=#00A0FF;" vertex="1" parent="1">
          <mxGeometry x="170" y="730" width="40" height="40" as="geometry" />
        </mxCell>
        <mxCell id="QSAhAxPXNk1GhNvLcbJa-96" value="" style="whiteSpace=wrap;html=1;fontColor=#ffffff;rounded=1;sketch=1;labelBackgroundColor=none;fillColor=#0C4966;strokeColor=#00A0FF;" vertex="1" parent="1">
          <mxGeometry x="210" y="730" width="40" height="40" as="geometry" />
        </mxCell>
        <mxCell id="QSAhAxPXNk1GhNvLcbJa-97" value="" style="whiteSpace=wrap;html=1;fontColor=#ffffff;rounded=1;sketch=1;labelBackgroundColor=none;fillColor=#0C4966;strokeColor=#00A0FF;" vertex="1" parent="1">
          <mxGeometry x="250" y="730" width="40" height="40" as="geometry" />
        </mxCell>
        <mxCell id="QSAhAxPXNk1GhNvLcbJa-98" value="" style="whiteSpace=wrap;html=1;fontColor=#ffffff;rounded=1;sketch=1;labelBackgroundColor=none;fillColor=#0C4966;strokeColor=#00A0FF;" vertex="1" parent="1">
          <mxGeometry x="290" y="730" width="40" height="40" as="geometry" />
        </mxCell>
        <mxCell id="QSAhAxPXNk1GhNvLcbJa-99" value="" style="whiteSpace=wrap;html=1;fontColor=#ffffff;rounded=1;sketch=1;labelBackgroundColor=none;fillColor=#0C4966;strokeColor=#00A0FF;" vertex="1" parent="1">
          <mxGeometry x="330" y="730" width="40" height="40" as="geometry" />
        </mxCell>
        <mxCell id="QSAhAxPXNk1GhNvLcbJa-100" value="" style="whiteSpace=wrap;html=1;fontColor=#ffffff;rounded=1;sketch=1;labelBackgroundColor=none;fillColor=#0C4966;strokeColor=#00A0FF;" vertex="1" parent="1">
          <mxGeometry x="370" y="730" width="40" height="40" as="geometry" />
        </mxCell>
        <mxCell id="QSAhAxPXNk1GhNvLcbJa-101" value="" style="whiteSpace=wrap;html=1;fontColor=#ffffff;rounded=1;sketch=1;labelBackgroundColor=none;fillColor=#0C4966;strokeColor=#00A0FF;" vertex="1" parent="1">
          <mxGeometry x="410" y="730" width="40" height="40" as="geometry" />
        </mxCell>
        <mxCell id="QSAhAxPXNk1GhNvLcbJa-102" style="edgeStyle=orthogonalEdgeStyle;curved=1;rounded=1;sketch=1;orthogonalLoop=1;jettySize=auto;html=1;entryX=0.5;entryY=0;entryDx=0;entryDy=0;strokeColor=#028090;fillColor=#F45B69;fontColor=#E4FDE1;exitX=0.5;exitY=0;exitDx=0;exitDy=0;" edge="1" parent="1" source="QSAhAxPXNk1GhNvLcbJa-103" target="QSAhAxPXNk1GhNvLcbJa-136">
          <mxGeometry relative="1" as="geometry">
            <Array as="points">
              <mxPoint x="70" y="680" />
              <mxPoint x="890" y="680" />
              <mxPoint x="890" y="700" />
              <mxPoint x="920" y="700" />
            </Array>
          </mxGeometry>
        </mxCell>
        <mxCell id="QSAhAxPXNk1GhNvLcbJa-103" value="1" style="whiteSpace=wrap;html=1;fontColor=#ffffff;rounded=1;sketch=1;labelBackgroundColor=none;fillColor=#d80073;strokeColor=#A50040;" vertex="1" parent="1">
          <mxGeometry x="50" y="770" width="40" height="40" as="geometry" />
        </mxCell>
        <mxCell id="QSAhAxPXNk1GhNvLcbJa-104" style="edgeStyle=orthogonalEdgeStyle;curved=1;rounded=1;sketch=1;orthogonalLoop=1;jettySize=auto;html=1;exitX=1;exitY=0.5;exitDx=0;exitDy=0;fillColor=#F45B69;fontColor=#E4FDE1;labelBackgroundColor=#ffffff;fontSize=16;strokeColor=#03B5CC;strokeWidth=2;" edge="1" parent="1" source="QSAhAxPXNk1GhNvLcbJa-105" target="QSAhAxPXNk1GhNvLcbJa-138">
          <mxGeometry relative="1" as="geometry">
            <Array as="points">
              <mxPoint x="130" y="730" />
            </Array>
          </mxGeometry>
        </mxCell>
        <mxCell id="QSAhAxPXNk1GhNvLcbJa-105" value="2" style="whiteSpace=wrap;html=1;fontColor=#ffffff;rounded=1;sketch=1;labelBackgroundColor=none;fillColor=#d80073;strokeColor=#A50040;" vertex="1" parent="1">
          <mxGeometry x="90" y="770" width="40" height="40" as="geometry" />
        </mxCell>
        <mxCell id="QSAhAxPXNk1GhNvLcbJa-106" value="" style="whiteSpace=wrap;html=1;fontColor=#ffffff;rounded=1;sketch=1;labelBackgroundColor=none;fillColor=#0C4966;strokeColor=#00A0FF;" vertex="1" parent="1">
          <mxGeometry x="130" y="770" width="40" height="40" as="geometry" />
        </mxCell>
        <mxCell id="QSAhAxPXNk1GhNvLcbJa-107" value="" style="whiteSpace=wrap;html=1;fontColor=#ffffff;rounded=1;sketch=1;labelBackgroundColor=none;fillColor=#0C4966;strokeColor=#00A0FF;" vertex="1" parent="1">
          <mxGeometry x="170" y="770" width="40" height="40" as="geometry" />
        </mxCell>
        <mxCell id="QSAhAxPXNk1GhNvLcbJa-108" value="" style="whiteSpace=wrap;html=1;fontColor=#ffffff;rounded=1;sketch=1;labelBackgroundColor=none;fillColor=#0C4966;strokeColor=#00A0FF;" vertex="1" parent="1">
          <mxGeometry x="210" y="770" width="40" height="40" as="geometry" />
        </mxCell>
        <mxCell id="QSAhAxPXNk1GhNvLcbJa-109" value="" style="whiteSpace=wrap;html=1;fontColor=#ffffff;rounded=1;sketch=1;labelBackgroundColor=none;fillColor=#0C4966;strokeColor=#00A0FF;" vertex="1" parent="1">
          <mxGeometry x="250" y="770" width="40" height="40" as="geometry" />
        </mxCell>
        <mxCell id="QSAhAxPXNk1GhNvLcbJa-110" value="" style="whiteSpace=wrap;html=1;fontColor=#ffffff;rounded=1;sketch=1;labelBackgroundColor=none;fillColor=#0C4966;strokeColor=#00A0FF;" vertex="1" parent="1">
          <mxGeometry x="290" y="770" width="40" height="40" as="geometry" />
        </mxCell>
        <mxCell id="QSAhAxPXNk1GhNvLcbJa-111" value="" style="whiteSpace=wrap;html=1;fontColor=#ffffff;rounded=1;sketch=1;labelBackgroundColor=none;fillColor=#0C4966;strokeColor=#00A0FF;" vertex="1" parent="1">
          <mxGeometry x="330" y="770" width="40" height="40" as="geometry" />
        </mxCell>
        <mxCell id="QSAhAxPXNk1GhNvLcbJa-112" value="" style="whiteSpace=wrap;html=1;fontColor=#ffffff;rounded=1;sketch=1;labelBackgroundColor=none;fillColor=#0C4966;strokeColor=#00A0FF;" vertex="1" parent="1">
          <mxGeometry x="370" y="770" width="40" height="40" as="geometry" />
        </mxCell>
        <mxCell id="QSAhAxPXNk1GhNvLcbJa-113" value="" style="whiteSpace=wrap;html=1;fontColor=#ffffff;rounded=1;sketch=1;labelBackgroundColor=none;fillColor=#0C4966;strokeColor=#00A0FF;" vertex="1" parent="1">
          <mxGeometry x="410" y="770" width="40" height="40" as="geometry" />
        </mxCell>
        <mxCell id="QSAhAxPXNk1GhNvLcbJa-114" value="" style="whiteSpace=wrap;html=1;fontColor=#ffffff;rounded=1;sketch=1;labelBackgroundColor=none;fillColor=#0C4966;strokeColor=#00A0FF;" vertex="1" parent="1">
          <mxGeometry x="50" y="810" width="40" height="40" as="geometry" />
        </mxCell>
        <mxCell id="QSAhAxPXNk1GhNvLcbJa-115" value="" style="whiteSpace=wrap;html=1;fontColor=#ffffff;rounded=1;sketch=1;labelBackgroundColor=none;fillColor=#0C4966;strokeColor=#00A0FF;" vertex="1" parent="1">
          <mxGeometry x="90" y="810" width="40" height="40" as="geometry" />
        </mxCell>
        <mxCell id="QSAhAxPXNk1GhNvLcbJa-116" value="" style="whiteSpace=wrap;html=1;fontColor=#ffffff;rounded=1;sketch=1;labelBackgroundColor=none;fillColor=#0C4966;strokeColor=#00A0FF;" vertex="1" parent="1">
          <mxGeometry x="130" y="810" width="40" height="40" as="geometry" />
        </mxCell>
        <mxCell id="QSAhAxPXNk1GhNvLcbJa-117" value="" style="whiteSpace=wrap;html=1;fontColor=#ffffff;rounded=1;sketch=1;labelBackgroundColor=none;fillColor=#0C4966;strokeColor=#00A0FF;" vertex="1" parent="1">
          <mxGeometry x="170" y="810" width="40" height="40" as="geometry" />
        </mxCell>
        <mxCell id="QSAhAxPXNk1GhNvLcbJa-118" value="" style="whiteSpace=wrap;html=1;fontColor=#ffffff;rounded=1;sketch=1;labelBackgroundColor=none;fillColor=#0C4966;strokeColor=#00A0FF;" vertex="1" parent="1">
          <mxGeometry x="210" y="810" width="40" height="40" as="geometry" />
        </mxCell>
        <mxCell id="QSAhAxPXNk1GhNvLcbJa-119" value="" style="whiteSpace=wrap;html=1;fontColor=#ffffff;rounded=1;sketch=1;labelBackgroundColor=none;fillColor=#0C4966;strokeColor=#00A0FF;" vertex="1" parent="1">
          <mxGeometry x="250" y="810" width="40" height="40" as="geometry" />
        </mxCell>
        <mxCell id="QSAhAxPXNk1GhNvLcbJa-120" value="" style="whiteSpace=wrap;html=1;fontColor=#ffffff;rounded=1;sketch=1;labelBackgroundColor=none;fillColor=#0C4966;strokeColor=#00A0FF;" vertex="1" parent="1">
          <mxGeometry x="290" y="810" width="40" height="40" as="geometry" />
        </mxCell>
        <mxCell id="QSAhAxPXNk1GhNvLcbJa-121" value="" style="whiteSpace=wrap;html=1;fontColor=#ffffff;rounded=1;sketch=1;labelBackgroundColor=none;fillColor=#0C4966;strokeColor=#00A0FF;" vertex="1" parent="1">
          <mxGeometry x="330" y="810" width="40" height="40" as="geometry" />
        </mxCell>
        <mxCell id="QSAhAxPXNk1GhNvLcbJa-122" value="" style="whiteSpace=wrap;html=1;fontColor=#ffffff;rounded=1;sketch=1;labelBackgroundColor=none;fillColor=#0C4966;strokeColor=#00A0FF;" vertex="1" parent="1">
          <mxGeometry x="370" y="810" width="40" height="40" as="geometry" />
        </mxCell>
        <mxCell id="QSAhAxPXNk1GhNvLcbJa-123" value="" style="whiteSpace=wrap;html=1;fontColor=#ffffff;rounded=1;sketch=1;labelBackgroundColor=none;fillColor=#0C4966;strokeColor=#00A0FF;" vertex="1" parent="1">
          <mxGeometry x="410" y="810" width="40" height="40" as="geometry" />
        </mxCell>
        <mxCell id="QSAhAxPXNk1GhNvLcbJa-124" value="" style="whiteSpace=wrap;html=1;fontColor=#ffffff;rounded=1;sketch=1;labelBackgroundColor=none;fillColor=#0C4966;strokeColor=#00A0FF;" vertex="1" parent="1">
          <mxGeometry x="50" y="850" width="40" height="40" as="geometry" />
        </mxCell>
        <mxCell id="QSAhAxPXNk1GhNvLcbJa-125" value="" style="whiteSpace=wrap;html=1;fontColor=#ffffff;rounded=1;sketch=1;labelBackgroundColor=none;fillColor=#0C4966;strokeColor=#00A0FF;" vertex="1" parent="1">
          <mxGeometry x="90" y="850" width="40" height="40" as="geometry" />
        </mxCell>
        <mxCell id="QSAhAxPXNk1GhNvLcbJa-126" value="" style="whiteSpace=wrap;html=1;fontColor=#ffffff;rounded=1;sketch=1;labelBackgroundColor=none;fillColor=#0C4966;strokeColor=#00A0FF;" vertex="1" parent="1">
          <mxGeometry x="130" y="850" width="40" height="40" as="geometry" />
        </mxCell>
        <mxCell id="QSAhAxPXNk1GhNvLcbJa-127" value="" style="whiteSpace=wrap;html=1;fontColor=#ffffff;rounded=1;sketch=1;labelBackgroundColor=none;fillColor=#0C4966;strokeColor=#00A0FF;" vertex="1" parent="1">
          <mxGeometry x="170" y="850" width="40" height="40" as="geometry" />
        </mxCell>
        <mxCell id="QSAhAxPXNk1GhNvLcbJa-128" value="" style="whiteSpace=wrap;html=1;fontColor=#ffffff;rounded=1;sketch=1;labelBackgroundColor=none;fillColor=#0C4966;strokeColor=#00A0FF;" vertex="1" parent="1">
          <mxGeometry x="210" y="850" width="40" height="40" as="geometry" />
        </mxCell>
        <mxCell id="QSAhAxPXNk1GhNvLcbJa-129" value="" style="whiteSpace=wrap;html=1;fontColor=#ffffff;rounded=1;sketch=1;labelBackgroundColor=none;fillColor=#0C4966;strokeColor=#00A0FF;" vertex="1" parent="1">
          <mxGeometry x="250" y="850" width="40" height="40" as="geometry" />
        </mxCell>
        <mxCell id="QSAhAxPXNk1GhNvLcbJa-130" value="" style="whiteSpace=wrap;html=1;fontColor=#ffffff;rounded=1;sketch=1;labelBackgroundColor=none;fillColor=#0C4966;strokeColor=#00A0FF;" vertex="1" parent="1">
          <mxGeometry x="290" y="850" width="40" height="40" as="geometry" />
        </mxCell>
        <mxCell id="QSAhAxPXNk1GhNvLcbJa-131" value="" style="whiteSpace=wrap;html=1;fontColor=#ffffff;rounded=1;sketch=1;labelBackgroundColor=none;fillColor=#0C4966;strokeColor=#00A0FF;" vertex="1" parent="1">
          <mxGeometry x="330" y="850" width="40" height="40" as="geometry" />
        </mxCell>
        <mxCell id="QSAhAxPXNk1GhNvLcbJa-132" value="" style="whiteSpace=wrap;html=1;fontColor=#ffffff;rounded=1;sketch=1;labelBackgroundColor=none;fillColor=#0C4966;strokeColor=#00A0FF;" vertex="1" parent="1">
          <mxGeometry x="370" y="850" width="40" height="40" as="geometry" />
        </mxCell>
        <mxCell id="QSAhAxPXNk1GhNvLcbJa-133" value="" style="whiteSpace=wrap;html=1;fontColor=#ffffff;rounded=1;sketch=1;labelBackgroundColor=none;fillColor=#0C4966;strokeColor=#00A0FF;" vertex="1" parent="1">
          <mxGeometry x="410" y="850" width="40" height="40" as="geometry" />
        </mxCell>
        <mxCell id="QSAhAxPXNk1GhNvLcbJa-134" value="0" style="whiteSpace=wrap;html=1;rounded=1;sketch=1;labelBackgroundColor=none;fillColor=#f8cecc;strokeColor=#b85450;fontColor=#FFFFFF;" vertex="1" parent="1">
          <mxGeometry x="1040" y="730" width="40" height="40" as="geometry" />
        </mxCell>
        <mxCell id="QSAhAxPXNk1GhNvLcbJa-135" value="1" style="whiteSpace=wrap;html=1;rounded=1;sketch=1;labelBackgroundColor=none;fillColor=#60a917;strokeColor=#2D7600;fontColor=#ffffff;" vertex="1" parent="1">
          <mxGeometry x="980" y="730" width="40" height="40" as="geometry" />
        </mxCell>
        <mxCell id="QSAhAxPXNk1GhNvLcbJa-136" value="1" style="whiteSpace=wrap;html=1;fontColor=#ffffff;rounded=1;sketch=1;labelBackgroundColor=none;fillColor=#d80073;strokeColor=#A50040;" vertex="1" parent="1">
          <mxGeometry x="900" y="730" width="40" height="40" as="geometry" />
        </mxCell>
        <mxCell id="QSAhAxPXNk1GhNvLcbJa-137" value="2" style="whiteSpace=wrap;html=1;fontColor=#ffffff;rounded=1;sketch=1;labelBackgroundColor=none;fillColor=#d80073;strokeColor=#A50040;" vertex="1" parent="1">
          <mxGeometry x="830" y="730" width="40" height="40" as="geometry" />
        </mxCell>
        <mxCell id="QSAhAxPXNk1GhNvLcbJa-138" value="2" style="whiteSpace=wrap;html=1;fontColor=#ffffff;rounded=1;sketch=1;labelBackgroundColor=none;fillColor=#d80073;strokeColor=#A50040;" vertex="1" parent="1">
          <mxGeometry x="770" y="730" width="40" height="40" as="geometry" />
        </mxCell>
        <mxCell id="QSAhAxPXNk1GhNvLcbJa-139" value="" style="shape=partialRectangle;whiteSpace=wrap;html=1;left=0;right=0;fillColor=none;rounded=1;sketch=1;strokeColor=#DDA15E;fontColor=#FEFAE0;" vertex="1" parent="1">
          <mxGeometry x="580" y="1035" width="380" height="90" as="geometry" />
        </mxCell>
        <mxCell id="QSAhAxPXNk1GhNvLcbJa-140" value="0" style="whiteSpace=wrap;html=1;rounded=1;sketch=1;labelBackgroundColor=none;fillColor=#f8cecc;strokeColor=#b85450;fontColor=#FCFCFC;" vertex="1" parent="1">
          <mxGeometry x="60" y="1060" width="40" height="40" as="geometry" />
        </mxCell>
        <mxCell id="QSAhAxPXNk1GhNvLcbJa-141" value="1" style="whiteSpace=wrap;html=1;rounded=1;sketch=1;labelBackgroundColor=none;fillColor=#f8cecc;strokeColor=#b85450;fontColor=#FCFCFC;" vertex="1" parent="1">
          <mxGeometry x="100" y="1060" width="40" height="40" as="geometry" />
        </mxCell>
        <mxCell id="QSAhAxPXNk1GhNvLcbJa-142" style="edgeStyle=orthogonalEdgeStyle;curved=1;rounded=1;sketch=1;orthogonalLoop=1;jettySize=auto;html=1;strokeColor=#028090;fillColor=#F45B69;fontColor=#E4FDE1;" edge="1" parent="1" source="QSAhAxPXNk1GhNvLcbJa-143" target="QSAhAxPXNk1GhNvLcbJa-187">
          <mxGeometry relative="1" as="geometry">
            <Array as="points">
              <mxPoint x="160" y="940" />
              <mxPoint x="860" y="940" />
            </Array>
          </mxGeometry>
        </mxCell>
        <mxCell id="QSAhAxPXNk1GhNvLcbJa-143" value="2" style="whiteSpace=wrap;html=1;rounded=1;sketch=1;labelBackgroundColor=none;fillColor=#f8cecc;strokeColor=#b85450;fontColor=#FCFCFC;" vertex="1" parent="1">
          <mxGeometry x="140" y="1060" width="40" height="40" as="geometry" />
        </mxCell>
        <mxCell id="QSAhAxPXNk1GhNvLcbJa-144" value="" style="whiteSpace=wrap;html=1;fontColor=#ffffff;rounded=1;sketch=1;labelBackgroundColor=none;fillColor=#0C4966;strokeColor=#00A0FF;" vertex="1" parent="1">
          <mxGeometry x="180" y="1060" width="40" height="40" as="geometry" />
        </mxCell>
        <mxCell id="QSAhAxPXNk1GhNvLcbJa-145" value="" style="whiteSpace=wrap;html=1;fontColor=#ffffff;rounded=1;sketch=1;labelBackgroundColor=none;fillColor=#0C4966;strokeColor=#00A0FF;" vertex="1" parent="1">
          <mxGeometry x="220" y="1060" width="40" height="40" as="geometry" />
        </mxCell>
        <mxCell id="QSAhAxPXNk1GhNvLcbJa-146" value="" style="whiteSpace=wrap;html=1;fontColor=#ffffff;rounded=1;sketch=1;labelBackgroundColor=none;fillColor=#0C4966;strokeColor=#00A0FF;" vertex="1" parent="1">
          <mxGeometry x="260" y="1060" width="40" height="40" as="geometry" />
        </mxCell>
        <mxCell id="QSAhAxPXNk1GhNvLcbJa-147" value="" style="whiteSpace=wrap;html=1;fontColor=#ffffff;rounded=1;sketch=1;labelBackgroundColor=none;fillColor=#0C4966;strokeColor=#00A0FF;" vertex="1" parent="1">
          <mxGeometry x="300" y="1060" width="40" height="40" as="geometry" />
        </mxCell>
        <mxCell id="QSAhAxPXNk1GhNvLcbJa-148" value="" style="whiteSpace=wrap;html=1;fontColor=#ffffff;rounded=1;sketch=1;labelBackgroundColor=none;fillColor=#0C4966;strokeColor=#00A0FF;" vertex="1" parent="1">
          <mxGeometry x="340" y="1060" width="40" height="40" as="geometry" />
        </mxCell>
        <mxCell id="QSAhAxPXNk1GhNvLcbJa-149" value="" style="whiteSpace=wrap;html=1;fontColor=#ffffff;rounded=1;sketch=1;labelBackgroundColor=none;fillColor=#0C4966;strokeColor=#00A0FF;" vertex="1" parent="1">
          <mxGeometry x="380" y="1060" width="40" height="40" as="geometry" />
        </mxCell>
        <mxCell id="QSAhAxPXNk1GhNvLcbJa-150" value="" style="whiteSpace=wrap;html=1;fontColor=#ffffff;rounded=1;sketch=1;labelBackgroundColor=none;fillColor=#0C4966;strokeColor=#00A0FF;" vertex="1" parent="1">
          <mxGeometry x="420" y="1060" width="40" height="40" as="geometry" />
        </mxCell>
        <mxCell id="QSAhAxPXNk1GhNvLcbJa-151" style="edgeStyle=orthogonalEdgeStyle;curved=1;rounded=1;sketch=1;orthogonalLoop=1;jettySize=auto;html=1;entryX=0.5;entryY=0;entryDx=0;entryDy=0;strokeColor=#028090;fillColor=#F45B69;fontColor=#E4FDE1;exitX=0.5;exitY=0;exitDx=0;exitDy=0;" edge="1" parent="1" source="QSAhAxPXNk1GhNvLcbJa-152" target="QSAhAxPXNk1GhNvLcbJa-186">
          <mxGeometry relative="1" as="geometry">
            <Array as="points">
              <mxPoint x="80" y="900" />
              <mxPoint x="1010" y="900" />
            </Array>
          </mxGeometry>
        </mxCell>
        <mxCell id="QSAhAxPXNk1GhNvLcbJa-152" value="1" style="whiteSpace=wrap;html=1;rounded=1;sketch=1;labelBackgroundColor=none;fillColor=#f8cecc;strokeColor=#b85450;fontColor=#FCFCFC;" vertex="1" parent="1">
          <mxGeometry x="60" y="1100" width="40" height="40" as="geometry" />
        </mxCell>
        <mxCell id="QSAhAxPXNk1GhNvLcbJa-153" style="edgeStyle=orthogonalEdgeStyle;curved=1;rounded=1;sketch=1;orthogonalLoop=1;jettySize=auto;html=1;exitX=1;exitY=0.5;exitDx=0;exitDy=0;fillColor=#F45B69;fontColor=#E4FDE1;labelBackgroundColor=#ffffff;fontSize=16;strokeColor=#03B5CC;strokeWidth=2;" edge="1" parent="1" source="QSAhAxPXNk1GhNvLcbJa-154" target="QSAhAxPXNk1GhNvLcbJa-188">
          <mxGeometry relative="1" as="geometry">
            <Array as="points">
              <mxPoint x="140" y="980" />
              <mxPoint x="800" y="980" />
            </Array>
          </mxGeometry>
        </mxCell>
        <mxCell id="QSAhAxPXNk1GhNvLcbJa-154" value="2" style="whiteSpace=wrap;html=1;fontColor=#ffffff;rounded=1;sketch=1;labelBackgroundColor=none;fillColor=#d80073;strokeColor=#A50040;" vertex="1" parent="1">
          <mxGeometry x="100" y="1100" width="40" height="40" as="geometry" />
        </mxCell>
        <mxCell id="QSAhAxPXNk1GhNvLcbJa-155" value="" style="whiteSpace=wrap;html=1;fontColor=#ffffff;rounded=1;sketch=1;labelBackgroundColor=none;fillColor=#0C4966;strokeColor=#00A0FF;" vertex="1" parent="1">
          <mxGeometry x="140" y="1100" width="40" height="40" as="geometry" />
        </mxCell>
        <mxCell id="QSAhAxPXNk1GhNvLcbJa-156" value="" style="whiteSpace=wrap;html=1;fontColor=#ffffff;rounded=1;sketch=1;labelBackgroundColor=none;fillColor=#0C4966;strokeColor=#00A0FF;" vertex="1" parent="1">
          <mxGeometry x="180" y="1100" width="40" height="40" as="geometry" />
        </mxCell>
        <mxCell id="QSAhAxPXNk1GhNvLcbJa-157" value="" style="whiteSpace=wrap;html=1;fontColor=#ffffff;rounded=1;sketch=1;labelBackgroundColor=none;fillColor=#0C4966;strokeColor=#00A0FF;" vertex="1" parent="1">
          <mxGeometry x="220" y="1100" width="40" height="40" as="geometry" />
        </mxCell>
        <mxCell id="QSAhAxPXNk1GhNvLcbJa-158" value="" style="whiteSpace=wrap;html=1;fontColor=#ffffff;rounded=1;sketch=1;labelBackgroundColor=none;fillColor=#0C4966;strokeColor=#00A0FF;" vertex="1" parent="1">
          <mxGeometry x="260" y="1100" width="40" height="40" as="geometry" />
        </mxCell>
        <mxCell id="QSAhAxPXNk1GhNvLcbJa-159" value="" style="whiteSpace=wrap;html=1;fontColor=#ffffff;rounded=1;sketch=1;labelBackgroundColor=none;fillColor=#0C4966;strokeColor=#00A0FF;" vertex="1" parent="1">
          <mxGeometry x="300" y="1100" width="40" height="40" as="geometry" />
        </mxCell>
        <mxCell id="QSAhAxPXNk1GhNvLcbJa-160" value="" style="whiteSpace=wrap;html=1;fontColor=#ffffff;rounded=1;sketch=1;labelBackgroundColor=none;fillColor=#0C4966;strokeColor=#00A0FF;" vertex="1" parent="1">
          <mxGeometry x="340" y="1100" width="40" height="40" as="geometry" />
        </mxCell>
        <mxCell id="QSAhAxPXNk1GhNvLcbJa-161" value="" style="whiteSpace=wrap;html=1;fontColor=#ffffff;rounded=1;sketch=1;labelBackgroundColor=none;fillColor=#0C4966;strokeColor=#00A0FF;" vertex="1" parent="1">
          <mxGeometry x="380" y="1100" width="40" height="40" as="geometry" />
        </mxCell>
        <mxCell id="QSAhAxPXNk1GhNvLcbJa-162" value="" style="whiteSpace=wrap;html=1;fontColor=#ffffff;rounded=1;sketch=1;labelBackgroundColor=none;fillColor=#0C4966;strokeColor=#00A0FF;" vertex="1" parent="1">
          <mxGeometry x="420" y="1100" width="40" height="40" as="geometry" />
        </mxCell>
        <mxCell id="QSAhAxPXNk1GhNvLcbJa-163" style="edgeStyle=orthogonalEdgeStyle;curved=1;rounded=1;sketch=1;orthogonalLoop=1;jettySize=auto;html=1;exitX=1;exitY=0.5;exitDx=0;exitDy=0;labelBackgroundColor=#ffffff;strokeColor=#03B5CC;strokeWidth=2;fillColor=#F45B69;fontSize=16;fontColor=#E4FDE1;" edge="1" parent="1" source="QSAhAxPXNk1GhNvLcbJa-164" target="QSAhAxPXNk1GhNvLcbJa-189">
          <mxGeometry relative="1" as="geometry" />
        </mxCell>
        <mxCell id="QSAhAxPXNk1GhNvLcbJa-164" value="3" style="whiteSpace=wrap;html=1;fontColor=#ffffff;rounded=1;sketch=1;labelBackgroundColor=none;fillColor=#d80073;strokeColor=#A50040;" vertex="1" parent="1">
          <mxGeometry x="60" y="1140" width="40" height="40" as="geometry" />
        </mxCell>
        <mxCell id="QSAhAxPXNk1GhNvLcbJa-165" value="" style="whiteSpace=wrap;html=1;fontColor=#ffffff;rounded=1;sketch=1;labelBackgroundColor=none;fillColor=#0C4966;strokeColor=#00A0FF;" vertex="1" parent="1">
          <mxGeometry x="100" y="1140" width="40" height="40" as="geometry" />
        </mxCell>
        <mxCell id="QSAhAxPXNk1GhNvLcbJa-166" value="" style="whiteSpace=wrap;html=1;fontColor=#ffffff;rounded=1;sketch=1;labelBackgroundColor=none;fillColor=#0C4966;strokeColor=#00A0FF;" vertex="1" parent="1">
          <mxGeometry x="140" y="1140" width="40" height="40" as="geometry" />
        </mxCell>
        <mxCell id="QSAhAxPXNk1GhNvLcbJa-167" value="" style="whiteSpace=wrap;html=1;fontColor=#ffffff;rounded=1;sketch=1;labelBackgroundColor=none;fillColor=#0C4966;strokeColor=#00A0FF;" vertex="1" parent="1">
          <mxGeometry x="180" y="1140" width="40" height="40" as="geometry" />
        </mxCell>
        <mxCell id="QSAhAxPXNk1GhNvLcbJa-168" value="" style="whiteSpace=wrap;html=1;fontColor=#ffffff;rounded=1;sketch=1;labelBackgroundColor=none;fillColor=#0C4966;strokeColor=#00A0FF;" vertex="1" parent="1">
          <mxGeometry x="220" y="1140" width="40" height="40" as="geometry" />
        </mxCell>
        <mxCell id="QSAhAxPXNk1GhNvLcbJa-169" value="" style="whiteSpace=wrap;html=1;fontColor=#ffffff;rounded=1;sketch=1;labelBackgroundColor=none;fillColor=#0C4966;strokeColor=#00A0FF;" vertex="1" parent="1">
          <mxGeometry x="260" y="1140" width="40" height="40" as="geometry" />
        </mxCell>
        <mxCell id="QSAhAxPXNk1GhNvLcbJa-170" value="" style="whiteSpace=wrap;html=1;fontColor=#ffffff;rounded=1;sketch=1;labelBackgroundColor=none;fillColor=#0C4966;strokeColor=#00A0FF;" vertex="1" parent="1">
          <mxGeometry x="300" y="1140" width="40" height="40" as="geometry" />
        </mxCell>
        <mxCell id="QSAhAxPXNk1GhNvLcbJa-171" value="" style="whiteSpace=wrap;html=1;fontColor=#ffffff;rounded=1;sketch=1;labelBackgroundColor=none;fillColor=#0C4966;strokeColor=#00A0FF;" vertex="1" parent="1">
          <mxGeometry x="340" y="1140" width="40" height="40" as="geometry" />
        </mxCell>
        <mxCell id="QSAhAxPXNk1GhNvLcbJa-172" value="" style="whiteSpace=wrap;html=1;fontColor=#ffffff;rounded=1;sketch=1;labelBackgroundColor=none;fillColor=#0C4966;strokeColor=#00A0FF;" vertex="1" parent="1">
          <mxGeometry x="380" y="1140" width="40" height="40" as="geometry" />
        </mxCell>
        <mxCell id="QSAhAxPXNk1GhNvLcbJa-173" value="" style="whiteSpace=wrap;html=1;fontColor=#ffffff;rounded=1;sketch=1;labelBackgroundColor=none;fillColor=#0C4966;strokeColor=#00A0FF;" vertex="1" parent="1">
          <mxGeometry x="420" y="1140" width="40" height="40" as="geometry" />
        </mxCell>
        <mxCell id="QSAhAxPXNk1GhNvLcbJa-174" value="" style="whiteSpace=wrap;html=1;fontColor=#ffffff;rounded=1;sketch=1;labelBackgroundColor=none;fillColor=#0C4966;strokeColor=#00A0FF;" vertex="1" parent="1">
          <mxGeometry x="60" y="1180" width="40" height="40" as="geometry" />
        </mxCell>
        <mxCell id="QSAhAxPXNk1GhNvLcbJa-175" value="" style="whiteSpace=wrap;html=1;fontColor=#ffffff;rounded=1;sketch=1;labelBackgroundColor=none;fillColor=#0C4966;strokeColor=#00A0FF;" vertex="1" parent="1">
          <mxGeometry x="100" y="1180" width="40" height="40" as="geometry" />
        </mxCell>
        <mxCell id="QSAhAxPXNk1GhNvLcbJa-176" value="" style="whiteSpace=wrap;html=1;fontColor=#ffffff;rounded=1;sketch=1;labelBackgroundColor=none;fillColor=#0C4966;strokeColor=#00A0FF;" vertex="1" parent="1">
          <mxGeometry x="140" y="1180" width="40" height="40" as="geometry" />
        </mxCell>
        <mxCell id="QSAhAxPXNk1GhNvLcbJa-177" value="" style="whiteSpace=wrap;html=1;fontColor=#ffffff;rounded=1;sketch=1;labelBackgroundColor=none;fillColor=#0C4966;strokeColor=#00A0FF;" vertex="1" parent="1">
          <mxGeometry x="180" y="1180" width="40" height="40" as="geometry" />
        </mxCell>
        <mxCell id="QSAhAxPXNk1GhNvLcbJa-178" value="" style="whiteSpace=wrap;html=1;fontColor=#ffffff;rounded=1;sketch=1;labelBackgroundColor=none;fillColor=#0C4966;strokeColor=#00A0FF;" vertex="1" parent="1">
          <mxGeometry x="220" y="1180" width="40" height="40" as="geometry" />
        </mxCell>
        <mxCell id="QSAhAxPXNk1GhNvLcbJa-179" value="" style="whiteSpace=wrap;html=1;fontColor=#ffffff;rounded=1;sketch=1;labelBackgroundColor=none;fillColor=#0C4966;strokeColor=#00A0FF;" vertex="1" parent="1">
          <mxGeometry x="260" y="1180" width="40" height="40" as="geometry" />
        </mxCell>
        <mxCell id="QSAhAxPXNk1GhNvLcbJa-180" value="" style="whiteSpace=wrap;html=1;fontColor=#ffffff;rounded=1;sketch=1;labelBackgroundColor=none;fillColor=#0C4966;strokeColor=#00A0FF;" vertex="1" parent="1">
          <mxGeometry x="300" y="1180" width="40" height="40" as="geometry" />
        </mxCell>
        <mxCell id="QSAhAxPXNk1GhNvLcbJa-181" value="" style="whiteSpace=wrap;html=1;fontColor=#ffffff;rounded=1;sketch=1;labelBackgroundColor=none;fillColor=#0C4966;strokeColor=#00A0FF;" vertex="1" parent="1">
          <mxGeometry x="340" y="1180" width="40" height="40" as="geometry" />
        </mxCell>
        <mxCell id="QSAhAxPXNk1GhNvLcbJa-182" value="" style="whiteSpace=wrap;html=1;fontColor=#ffffff;rounded=1;sketch=1;labelBackgroundColor=none;fillColor=#0C4966;strokeColor=#00A0FF;" vertex="1" parent="1">
          <mxGeometry x="380" y="1180" width="40" height="40" as="geometry" />
        </mxCell>
        <mxCell id="QSAhAxPXNk1GhNvLcbJa-183" value="" style="whiteSpace=wrap;html=1;fontColor=#ffffff;rounded=1;sketch=1;labelBackgroundColor=none;fillColor=#0C4966;strokeColor=#00A0FF;" vertex="1" parent="1">
          <mxGeometry x="420" y="1180" width="40" height="40" as="geometry" />
        </mxCell>
        <mxCell id="QSAhAxPXNk1GhNvLcbJa-184" value="0" style="whiteSpace=wrap;html=1;rounded=1;sketch=1;labelBackgroundColor=none;fillColor=#f8cecc;strokeColor=#b85450;fontColor=#FFFFFF;" vertex="1" parent="1">
          <mxGeometry x="1120" y="1060" width="40" height="40" as="geometry" />
        </mxCell>
        <mxCell id="QSAhAxPXNk1GhNvLcbJa-185" value="1" style="whiteSpace=wrap;html=1;rounded=1;sketch=1;labelBackgroundColor=none;fillColor=#f8cecc;strokeColor=#b85450;fontColor=#FFFFFF;" vertex="1" parent="1">
          <mxGeometry x="1050" y="1060" width="40" height="40" as="geometry" />
        </mxCell>
        <mxCell id="QSAhAxPXNk1GhNvLcbJa-186" value="1" style="whiteSpace=wrap;html=1;rounded=1;sketch=1;labelBackgroundColor=none;fillColor=#f8cecc;strokeColor=#b85450;fontColor=#FFFFFF;" vertex="1" parent="1">
          <mxGeometry x="990" y="1060" width="40" height="40" as="geometry" />
        </mxCell>
        <mxCell id="QSAhAxPXNk1GhNvLcbJa-187" value="2" style="whiteSpace=wrap;html=1;fontColor=#ffffff;rounded=1;sketch=1;labelBackgroundColor=none;fillColor=#d80073;strokeColor=#A50040;" vertex="1" parent="1">
          <mxGeometry x="840" y="1060" width="40" height="40" as="geometry" />
        </mxCell>
        <mxCell id="QSAhAxPXNk1GhNvLcbJa-188" value="2" style="whiteSpace=wrap;html=1;fontColor=#ffffff;rounded=1;sketch=1;labelBackgroundColor=none;fillColor=#d80073;strokeColor=#A50040;" vertex="1" parent="1">
          <mxGeometry x="780" y="1060" width="40" height="40" as="geometry" />
        </mxCell>
        <mxCell id="QSAhAxPXNk1GhNvLcbJa-189" value="3" style="whiteSpace=wrap;html=1;fontColor=#ffffff;rounded=1;sketch=1;labelBackgroundColor=none;fillColor=#d80073;strokeColor=#A50040;" vertex="1" parent="1">
          <mxGeometry x="710" y="1060" width="40" height="40" as="geometry" />
        </mxCell>
        <mxCell id="QSAhAxPXNk1GhNvLcbJa-190" value="" style="shape=partialRectangle;whiteSpace=wrap;html=1;left=0;right=0;fillColor=none;rounded=1;sketch=1;strokeColor=#DDA15E;fontColor=#FEFAE0;" vertex="1" parent="1">
          <mxGeometry x="580" y="1465" width="380" height="90" as="geometry" />
        </mxCell>
        <mxCell id="QSAhAxPXNk1GhNvLcbJa-191" value="0" style="whiteSpace=wrap;html=1;rounded=1;sketch=1;labelBackgroundColor=none;fillColor=#f8cecc;strokeColor=#b85450;fontColor=#FFFFFF;" vertex="1" parent="1">
          <mxGeometry x="60" y="1490" width="40" height="40" as="geometry" />
        </mxCell>
        <mxCell id="QSAhAxPXNk1GhNvLcbJa-192" value="1" style="whiteSpace=wrap;html=1;rounded=1;sketch=1;labelBackgroundColor=none;fillColor=#f8cecc;strokeColor=#b85450;fontColor=#FFFFFF;" vertex="1" parent="1">
          <mxGeometry x="100" y="1490" width="40" height="40" as="geometry" />
        </mxCell>
        <mxCell id="QSAhAxPXNk1GhNvLcbJa-193" style="edgeStyle=orthogonalEdgeStyle;curved=1;rounded=1;sketch=1;orthogonalLoop=1;jettySize=auto;html=1;strokeColor=#028090;fillColor=#F45B69;fontColor=#E4FDE1;" edge="1" parent="1" source="QSAhAxPXNk1GhNvLcbJa-194" target="QSAhAxPXNk1GhNvLcbJa-239">
          <mxGeometry relative="1" as="geometry">
            <Array as="points">
              <mxPoint x="160" y="1370" />
              <mxPoint x="1030" y="1370" />
            </Array>
          </mxGeometry>
        </mxCell>
        <mxCell id="QSAhAxPXNk1GhNvLcbJa-194" value="2" style="whiteSpace=wrap;html=1;rounded=1;sketch=1;labelBackgroundColor=none;fillColor=#60a917;strokeColor=#2D7600;fontColor=#FFFFFF;" vertex="1" parent="1">
          <mxGeometry x="140" y="1490" width="40" height="40" as="geometry" />
        </mxCell>
        <mxCell id="QSAhAxPXNk1GhNvLcbJa-195" style="edgeStyle=orthogonalEdgeStyle;curved=1;rounded=1;sketch=1;orthogonalLoop=1;jettySize=auto;html=1;exitX=0.5;exitY=0;exitDx=0;exitDy=0;entryX=0.25;entryY=0;entryDx=0;entryDy=0;labelBackgroundColor=#ffffff;strokeColor=#03B5CC;strokeWidth=2;fillColor=#F45B69;fontSize=16;fontColor=#FFFFFF;" edge="1" parent="1" source="QSAhAxPXNk1GhNvLcbJa-196" target="QSAhAxPXNk1GhNvLcbJa-242">
          <mxGeometry relative="1" as="geometry" />
        </mxCell>
        <mxCell id="QSAhAxPXNk1GhNvLcbJa-196" value="4" style="whiteSpace=wrap;html=1;rounded=1;sketch=1;labelBackgroundColor=none;fillColor=#d80073;strokeColor=#00A0FF;fontColor=#FFFFFF;" vertex="1" parent="1">
          <mxGeometry x="180" y="1490" width="40" height="40" as="geometry" />
        </mxCell>
        <mxCell id="QSAhAxPXNk1GhNvLcbJa-197" value="" style="whiteSpace=wrap;html=1;rounded=1;sketch=1;labelBackgroundColor=none;fillColor=#0C4966;strokeColor=#00A0FF;fontColor=#FFFFFF;" vertex="1" parent="1">
          <mxGeometry x="220" y="1490" width="40" height="40" as="geometry" />
        </mxCell>
        <mxCell id="QSAhAxPXNk1GhNvLcbJa-198" value="" style="whiteSpace=wrap;html=1;rounded=1;sketch=1;labelBackgroundColor=none;fillColor=#0C4966;strokeColor=#00A0FF;fontColor=#FFFFFF;" vertex="1" parent="1">
          <mxGeometry x="260" y="1490" width="40" height="40" as="geometry" />
        </mxCell>
        <mxCell id="QSAhAxPXNk1GhNvLcbJa-199" value="" style="whiteSpace=wrap;html=1;rounded=1;sketch=1;labelBackgroundColor=none;fillColor=#0C4966;strokeColor=#00A0FF;fontColor=#FFFFFF;" vertex="1" parent="1">
          <mxGeometry x="300" y="1490" width="40" height="40" as="geometry" />
        </mxCell>
        <mxCell id="QSAhAxPXNk1GhNvLcbJa-200" value="" style="whiteSpace=wrap;html=1;rounded=1;sketch=1;labelBackgroundColor=none;fillColor=#0C4966;strokeColor=#00A0FF;fontColor=#FFFFFF;" vertex="1" parent="1">
          <mxGeometry x="340" y="1490" width="40" height="40" as="geometry" />
        </mxCell>
        <mxCell id="QSAhAxPXNk1GhNvLcbJa-201" value="" style="whiteSpace=wrap;html=1;rounded=1;sketch=1;labelBackgroundColor=none;fillColor=#0C4966;strokeColor=#00A0FF;fontColor=#FFFFFF;" vertex="1" parent="1">
          <mxGeometry x="380" y="1490" width="40" height="40" as="geometry" />
        </mxCell>
        <mxCell id="QSAhAxPXNk1GhNvLcbJa-202" value="" style="whiteSpace=wrap;html=1;rounded=1;sketch=1;labelBackgroundColor=none;fillColor=#0C4966;strokeColor=#00A0FF;fontColor=#FFFFFF;" vertex="1" parent="1">
          <mxGeometry x="420" y="1490" width="40" height="40" as="geometry" />
        </mxCell>
        <mxCell id="QSAhAxPXNk1GhNvLcbJa-203" value="`" style="whiteSpace=wrap;html=1;rounded=1;sketch=1;labelBackgroundColor=none;fillColor=#f8cecc;strokeColor=#b85450;fontColor=#FFFFFF;" vertex="1" parent="1">
          <mxGeometry x="60" y="1530" width="40" height="40" as="geometry" />
        </mxCell>
        <mxCell id="QSAhAxPXNk1GhNvLcbJa-204" style="edgeStyle=orthogonalEdgeStyle;curved=1;rounded=1;sketch=1;orthogonalLoop=1;jettySize=auto;html=1;exitX=1;exitY=0.5;exitDx=0;exitDy=0;fillColor=#F45B69;fontColor=#E4FDE1;labelBackgroundColor=#ffffff;fontSize=16;strokeColor=#03B5CC;strokeWidth=2;" edge="1" parent="1" source="QSAhAxPXNk1GhNvLcbJa-205" target="QSAhAxPXNk1GhNvLcbJa-240">
          <mxGeometry relative="1" as="geometry">
            <Array as="points">
              <mxPoint x="140" y="1600" />
              <mxPoint x="940" y="1600" />
            </Array>
          </mxGeometry>
        </mxCell>
        <mxCell id="QSAhAxPXNk1GhNvLcbJa-205" value="2" style="whiteSpace=wrap;html=1;rounded=1;sketch=1;labelBackgroundColor=none;fillColor=#f8cecc;strokeColor=#b85450;fontColor=#FFFFFF;" vertex="1" parent="1">
          <mxGeometry x="100" y="1530" width="40" height="40" as="geometry" />
        </mxCell>
        <mxCell id="QSAhAxPXNk1GhNvLcbJa-206" value="4" style="whiteSpace=wrap;html=1;rounded=1;sketch=1;labelBackgroundColor=none;fillColor=#d80073;strokeColor=#00A0FF;fontColor=#FFFFFF;" vertex="1" parent="1">
          <mxGeometry x="140" y="1530" width="40" height="40" as="geometry" />
        </mxCell>
        <mxCell id="QSAhAxPXNk1GhNvLcbJa-207" style="edgeStyle=orthogonalEdgeStyle;curved=1;rounded=1;sketch=1;orthogonalLoop=1;jettySize=auto;html=1;exitX=0;exitY=0.5;exitDx=0;exitDy=0;entryX=0.5;entryY=1;entryDx=0;entryDy=0;labelBackgroundColor=#ffffff;strokeColor=#03B5CC;strokeWidth=2;fillColor=#F45B69;fontSize=16;fontColor=#FFFFFF;" edge="1" parent="1" source="QSAhAxPXNk1GhNvLcbJa-208" target="QSAhAxPXNk1GhNvLcbJa-243">
          <mxGeometry relative="1" as="geometry">
            <Array as="points">
              <mxPoint x="750" y="1550" />
            </Array>
          </mxGeometry>
        </mxCell>
        <mxCell id="QSAhAxPXNk1GhNvLcbJa-208" value="" style="whiteSpace=wrap;html=1;rounded=1;sketch=1;labelBackgroundColor=none;fillColor=#0C4966;strokeColor=#00A0FF;fontColor=#FFFFFF;" vertex="1" parent="1">
          <mxGeometry x="180" y="1530" width="40" height="40" as="geometry" />
        </mxCell>
        <mxCell id="QSAhAxPXNk1GhNvLcbJa-209" value="" style="whiteSpace=wrap;html=1;rounded=1;sketch=1;labelBackgroundColor=none;fillColor=#0C4966;strokeColor=#00A0FF;fontColor=#FFFFFF;" vertex="1" parent="1">
          <mxGeometry x="220" y="1530" width="40" height="40" as="geometry" />
        </mxCell>
        <mxCell id="QSAhAxPXNk1GhNvLcbJa-210" value="" style="whiteSpace=wrap;html=1;rounded=1;sketch=1;labelBackgroundColor=none;fillColor=#0C4966;strokeColor=#00A0FF;fontColor=#FFFFFF;" vertex="1" parent="1">
          <mxGeometry x="260" y="1530" width="40" height="40" as="geometry" />
        </mxCell>
        <mxCell id="QSAhAxPXNk1GhNvLcbJa-211" value="" style="whiteSpace=wrap;html=1;rounded=1;sketch=1;labelBackgroundColor=none;fillColor=#0C4966;strokeColor=#00A0FF;fontColor=#FFFFFF;" vertex="1" parent="1">
          <mxGeometry x="300" y="1530" width="40" height="40" as="geometry" />
        </mxCell>
        <mxCell id="QSAhAxPXNk1GhNvLcbJa-212" value="" style="whiteSpace=wrap;html=1;rounded=1;sketch=1;labelBackgroundColor=none;fillColor=#0C4966;strokeColor=#00A0FF;fontColor=#FFFFFF;" vertex="1" parent="1">
          <mxGeometry x="340" y="1530" width="40" height="40" as="geometry" />
        </mxCell>
        <mxCell id="QSAhAxPXNk1GhNvLcbJa-213" value="" style="whiteSpace=wrap;html=1;rounded=1;sketch=1;labelBackgroundColor=none;fillColor=#0C4966;strokeColor=#00A0FF;fontColor=#FFFFFF;" vertex="1" parent="1">
          <mxGeometry x="380" y="1530" width="40" height="40" as="geometry" />
        </mxCell>
        <mxCell id="QSAhAxPXNk1GhNvLcbJa-214" value="" style="whiteSpace=wrap;html=1;rounded=1;sketch=1;labelBackgroundColor=none;fillColor=#0C4966;strokeColor=#00A0FF;fontColor=#FFFFFF;" vertex="1" parent="1">
          <mxGeometry x="420" y="1530" width="40" height="40" as="geometry" />
        </mxCell>
        <mxCell id="QSAhAxPXNk1GhNvLcbJa-215" style="edgeStyle=orthogonalEdgeStyle;curved=1;rounded=1;sketch=1;orthogonalLoop=1;jettySize=auto;html=1;exitX=0.5;exitY=0;exitDx=0;exitDy=0;labelBackgroundColor=#ffffff;strokeColor=#03B5CC;strokeWidth=2;fillColor=#F45B69;fontSize=16;fontColor=#E4FDE1;" edge="1" parent="1" source="QSAhAxPXNk1GhNvLcbJa-226" target="QSAhAxPXNk1GhNvLcbJa-241">
          <mxGeometry relative="1" as="geometry">
            <Array as="points">
              <mxPoint x="100" y="1610" />
              <mxPoint x="100" y="1760" />
              <mxPoint x="870" y="1760" />
            </Array>
          </mxGeometry>
        </mxCell>
        <mxCell id="QSAhAxPXNk1GhNvLcbJa-216" value="3" style="whiteSpace=wrap;html=1;rounded=1;sketch=1;labelBackgroundColor=none;fillColor=#d80073;strokeColor=#A50040;fontColor=#FFFFFF;" vertex="1" parent="1">
          <mxGeometry x="60" y="1570" width="40" height="40" as="geometry" />
        </mxCell>
        <mxCell id="QSAhAxPXNk1GhNvLcbJa-217" value="" style="whiteSpace=wrap;html=1;rounded=1;sketch=1;labelBackgroundColor=none;fillColor=#0C4966;strokeColor=#00A0FF;fontColor=#FFFFFF;" vertex="1" parent="1">
          <mxGeometry x="100" y="1570" width="40" height="40" as="geometry" />
        </mxCell>
        <mxCell id="QSAhAxPXNk1GhNvLcbJa-218" value="" style="whiteSpace=wrap;html=1;rounded=1;sketch=1;labelBackgroundColor=none;fillColor=#0C4966;strokeColor=#00A0FF;fontColor=#FFFFFF;" vertex="1" parent="1">
          <mxGeometry x="140" y="1570" width="40" height="40" as="geometry" />
        </mxCell>
        <mxCell id="QSAhAxPXNk1GhNvLcbJa-219" value="" style="whiteSpace=wrap;html=1;rounded=1;sketch=1;labelBackgroundColor=none;fillColor=#0C4966;strokeColor=#00A0FF;fontColor=#FFFFFF;" vertex="1" parent="1">
          <mxGeometry x="180" y="1570" width="40" height="40" as="geometry" />
        </mxCell>
        <mxCell id="QSAhAxPXNk1GhNvLcbJa-220" value="" style="whiteSpace=wrap;html=1;rounded=1;sketch=1;labelBackgroundColor=none;fillColor=#0C4966;strokeColor=#00A0FF;fontColor=#FFFFFF;" vertex="1" parent="1">
          <mxGeometry x="220" y="1570" width="40" height="40" as="geometry" />
        </mxCell>
        <mxCell id="QSAhAxPXNk1GhNvLcbJa-221" value="" style="whiteSpace=wrap;html=1;rounded=1;sketch=1;labelBackgroundColor=none;fillColor=#0C4966;strokeColor=#00A0FF;fontColor=#FFFFFF;" vertex="1" parent="1">
          <mxGeometry x="260" y="1570" width="40" height="40" as="geometry" />
        </mxCell>
        <mxCell id="QSAhAxPXNk1GhNvLcbJa-222" value="" style="whiteSpace=wrap;html=1;rounded=1;sketch=1;labelBackgroundColor=none;fillColor=#0C4966;strokeColor=#00A0FF;fontColor=#FFFFFF;" vertex="1" parent="1">
          <mxGeometry x="300" y="1570" width="40" height="40" as="geometry" />
        </mxCell>
        <mxCell id="QSAhAxPXNk1GhNvLcbJa-223" value="" style="whiteSpace=wrap;html=1;rounded=1;sketch=1;labelBackgroundColor=none;fillColor=#0C4966;strokeColor=#00A0FF;fontColor=#FFFFFF;" vertex="1" parent="1">
          <mxGeometry x="340" y="1570" width="40" height="40" as="geometry" />
        </mxCell>
        <mxCell id="QSAhAxPXNk1GhNvLcbJa-224" value="" style="whiteSpace=wrap;html=1;rounded=1;sketch=1;labelBackgroundColor=none;fillColor=#0C4966;strokeColor=#00A0FF;fontColor=#FFFFFF;" vertex="1" parent="1">
          <mxGeometry x="380" y="1570" width="40" height="40" as="geometry" />
        </mxCell>
        <mxCell id="QSAhAxPXNk1GhNvLcbJa-225" value="" style="whiteSpace=wrap;html=1;rounded=1;sketch=1;labelBackgroundColor=none;fillColor=#0C4966;strokeColor=#00A0FF;fontColor=#FFFFFF;" vertex="1" parent="1">
          <mxGeometry x="420" y="1570" width="40" height="40" as="geometry" />
        </mxCell>
        <mxCell id="QSAhAxPXNk1GhNvLcbJa-226" value="" style="whiteSpace=wrap;html=1;rounded=1;sketch=1;labelBackgroundColor=none;fillColor=#0C4966;strokeColor=#00A0FF;fontColor=#FFFFFF;" vertex="1" parent="1">
          <mxGeometry x="60" y="1610" width="40" height="40" as="geometry" />
        </mxCell>
        <mxCell id="QSAhAxPXNk1GhNvLcbJa-227" value="" style="whiteSpace=wrap;html=1;rounded=1;sketch=1;labelBackgroundColor=none;fillColor=#0C4966;strokeColor=#00A0FF;fontColor=#FFFFFF;" vertex="1" parent="1">
          <mxGeometry x="100" y="1610" width="40" height="40" as="geometry" />
        </mxCell>
        <mxCell id="QSAhAxPXNk1GhNvLcbJa-228" value="" style="whiteSpace=wrap;html=1;rounded=1;sketch=1;labelBackgroundColor=none;fillColor=#0C4966;strokeColor=#00A0FF;fontColor=#FFFFFF;" vertex="1" parent="1">
          <mxGeometry x="140" y="1610" width="40" height="40" as="geometry" />
        </mxCell>
        <mxCell id="QSAhAxPXNk1GhNvLcbJa-229" value="" style="whiteSpace=wrap;html=1;rounded=1;sketch=1;labelBackgroundColor=none;fillColor=#0C4966;strokeColor=#00A0FF;fontColor=#FFFFFF;" vertex="1" parent="1">
          <mxGeometry x="180" y="1610" width="40" height="40" as="geometry" />
        </mxCell>
        <mxCell id="QSAhAxPXNk1GhNvLcbJa-230" value="" style="whiteSpace=wrap;html=1;rounded=1;sketch=1;labelBackgroundColor=none;fillColor=#0C4966;strokeColor=#00A0FF;fontColor=#FFFFFF;" vertex="1" parent="1">
          <mxGeometry x="220" y="1610" width="40" height="40" as="geometry" />
        </mxCell>
        <mxCell id="QSAhAxPXNk1GhNvLcbJa-231" value="" style="whiteSpace=wrap;html=1;rounded=1;sketch=1;labelBackgroundColor=none;fillColor=#0C4966;strokeColor=#00A0FF;fontColor=#FFFFFF;" vertex="1" parent="1">
          <mxGeometry x="260" y="1610" width="40" height="40" as="geometry" />
        </mxCell>
        <mxCell id="QSAhAxPXNk1GhNvLcbJa-232" value="" style="whiteSpace=wrap;html=1;rounded=1;sketch=1;labelBackgroundColor=none;fillColor=#0C4966;strokeColor=#00A0FF;fontColor=#FFFFFF;" vertex="1" parent="1">
          <mxGeometry x="300" y="1610" width="40" height="40" as="geometry" />
        </mxCell>
        <mxCell id="QSAhAxPXNk1GhNvLcbJa-233" value="" style="whiteSpace=wrap;html=1;rounded=1;sketch=1;labelBackgroundColor=none;fillColor=#0C4966;strokeColor=#00A0FF;fontColor=#FFFFFF;" vertex="1" parent="1">
          <mxGeometry x="340" y="1610" width="40" height="40" as="geometry" />
        </mxCell>
        <mxCell id="QSAhAxPXNk1GhNvLcbJa-234" value="" style="whiteSpace=wrap;html=1;rounded=1;sketch=1;labelBackgroundColor=none;fillColor=#0C4966;strokeColor=#00A0FF;fontColor=#FFFFFF;" vertex="1" parent="1">
          <mxGeometry x="380" y="1610" width="40" height="40" as="geometry" />
        </mxCell>
        <mxCell id="QSAhAxPXNk1GhNvLcbJa-235" value="" style="whiteSpace=wrap;html=1;rounded=1;sketch=1;labelBackgroundColor=none;fillColor=#0C4966;strokeColor=#00A0FF;fontColor=#FFFFFF;" vertex="1" parent="1">
          <mxGeometry x="420" y="1610" width="40" height="40" as="geometry" />
        </mxCell>
        <mxCell id="QSAhAxPXNk1GhNvLcbJa-236" value="0" style="whiteSpace=wrap;html=1;rounded=1;sketch=1;labelBackgroundColor=none;fillColor=#f8cecc;strokeColor=#b85450;fontColor=#FFFFFF;" vertex="1" parent="1">
          <mxGeometry x="1230" y="1500" width="40" height="40" as="geometry" />
        </mxCell>
        <mxCell id="QSAhAxPXNk1GhNvLcbJa-237" value="1" style="whiteSpace=wrap;html=1;rounded=1;sketch=1;labelBackgroundColor=none;fillColor=#f8cecc;strokeColor=#b85450;fontColor=#FFFFFF;" vertex="1" parent="1">
          <mxGeometry x="1160" y="1500" width="40" height="40" as="geometry" />
        </mxCell>
        <mxCell id="QSAhAxPXNk1GhNvLcbJa-238" value="1" style="whiteSpace=wrap;html=1;rounded=1;sketch=1;labelBackgroundColor=none;fillColor=#f8cecc;strokeColor=#b85450;fontColor=#FFFFFF;" vertex="1" parent="1">
          <mxGeometry x="1080" y="1500" width="40" height="40" as="geometry" />
        </mxCell>
        <mxCell id="QSAhAxPXNk1GhNvLcbJa-239" value="2" style="whiteSpace=wrap;html=1;rounded=1;sketch=1;labelBackgroundColor=none;fillColor=#60a917;strokeColor=#2D7600;fontColor=#ffffff;" vertex="1" parent="1">
          <mxGeometry x="1010" y="1500" width="40" height="40" as="geometry" />
        </mxCell>
        <mxCell id="QSAhAxPXNk1GhNvLcbJa-240" value="2" style="whiteSpace=wrap;html=1;fontColor=#ffffff;rounded=1;sketch=1;labelBackgroundColor=none;fillColor=#d80073;strokeColor=#A50040;" vertex="1" parent="1">
          <mxGeometry x="920" y="1490" width="40" height="40" as="geometry" />
        </mxCell>
        <mxCell id="QSAhAxPXNk1GhNvLcbJa-241" value="3" style="whiteSpace=wrap;html=1;fontColor=#ffffff;rounded=1;sketch=1;labelBackgroundColor=none;fillColor=#d80073;strokeColor=#A50040;" vertex="1" parent="1">
          <mxGeometry x="850" y="1490" width="40" height="40" as="geometry" />
        </mxCell>
        <mxCell id="QSAhAxPXNk1GhNvLcbJa-242" value="4" style="whiteSpace=wrap;html=1;fontColor=#ffffff;rounded=1;sketch=1;labelBackgroundColor=none;fillColor=#d80073;strokeColor=#00A0FF;" vertex="1" parent="1">
          <mxGeometry x="790" y="1490" width="40" height="40" as="geometry" />
        </mxCell>
        <mxCell id="QSAhAxPXNk1GhNvLcbJa-243" value="4" style="whiteSpace=wrap;html=1;fontColor=#ffffff;rounded=1;sketch=1;labelBackgroundColor=none;fillColor=#d80073;strokeColor=#00A0FF;" vertex="1" parent="1">
          <mxGeometry x="730" y="1490" width="40" height="40" as="geometry" />
        </mxCell>
        <mxCell id="QSAhAxPXNk1GhNvLcbJa-244" value="&lt;h1&gt;广度优先遍历&lt;/h1&gt;" style="text;html=1;strokeColor=none;fillColor=none;spacing=5;spacingTop=-20;whiteSpace=wrap;overflow=hidden;rounded=0;sketch=1;fontSize=16;fontColor=#FFFFFF;" vertex="1" parent="1">
          <mxGeometry x="70" y="30" width="280" height="120" as="geometry" />
        </mxCell>
        <mxCell id="QSAhAxPXNk1GhNvLcbJa-245" value="" style="endArrow=none;html=1;labelBackgroundColor=#ffffff;strokeWidth=2;fillColor=#F45B69;fontSize=16;fontColor=#FFFFFF;curved=1;strokeColor=#04E0FC;" edge="1" parent="1">
          <mxGeometry width="50" height="50" relative="1" as="geometry">
            <mxPoint x="-30" y="290" as="sourcePoint" />
            <mxPoint x="130" y="100" as="targetPoint" />
            <Array as="points">
              <mxPoint x="30" y="270" />
              <mxPoint x="100" y="230" />
              <mxPoint x="120" y="160" />
            </Array>
          </mxGeometry>
        </mxCell>
        <mxCell id="QSAhAxPXNk1GhNvLcbJa-246" value="" style="endArrow=none;html=1;labelBackgroundColor=#ffffff;strokeWidth=2;fillColor=#F45B69;fontSize=16;fontColor=#FFFFFF;curved=1;strokeColor=#04E0FC;" edge="1" parent="1">
          <mxGeometry width="50" height="50" relative="1" as="geometry">
            <mxPoint x="-30" y="480" as="sourcePoint" />
            <mxPoint x="130" y="290" as="targetPoint" />
            <Array as="points">
              <mxPoint x="30" y="460" />
              <mxPoint x="100" y="420" />
              <mxPoint x="120" y="350" />
            </Array>
          </mxGeometry>
        </mxCell>
        <mxCell id="QSAhAxPXNk1GhNvLcbJa-247" value="" style="endArrow=none;html=1;labelBackgroundColor=#ffffff;strokeWidth=2;fillColor=#F45B69;fontSize=16;fontColor=#FFFFFF;curved=1;strokeColor=#04E0FC;" edge="1" parent="1">
          <mxGeometry width="50" height="50" relative="1" as="geometry">
            <mxPoint x="-40" y="810" as="sourcePoint" />
            <mxPoint x="120" y="620" as="targetPoint" />
            <Array as="points">
              <mxPoint x="20" y="790" />
              <mxPoint x="90" y="750" />
              <mxPoint x="110" y="680" />
            </Array>
          </mxGeometry>
        </mxCell>
        <mxCell id="QSAhAxPXNk1GhNvLcbJa-248" value="" style="endArrow=none;html=1;labelBackgroundColor=#ffffff;strokeWidth=2;fillColor=#F45B69;fontSize=16;fontColor=#FFFFFF;curved=1;strokeColor=#04E0FC;" edge="1" parent="1">
          <mxGeometry width="50" height="50" relative="1" as="geometry">
            <mxPoint x="-30" y="1150" as="sourcePoint" />
            <mxPoint x="130" y="960" as="targetPoint" />
            <Array as="points">
              <mxPoint x="30" y="1130" />
              <mxPoint x="100" y="1090" />
              <mxPoint x="120" y="1020" />
            </Array>
          </mxGeometry>
        </mxCell>
        <mxCell id="QSAhAxPXNk1GhNvLcbJa-249" value="" style="endArrow=none;html=1;labelBackgroundColor=#ffffff;strokeWidth=2;fillColor=#F45B69;fontSize=16;fontColor=#FFFFFF;curved=1;strokeColor=#04DEFA;" edge="1" parent="1">
          <mxGeometry width="50" height="50" relative="1" as="geometry">
            <mxPoint x="-20" y="1560" as="sourcePoint" />
            <mxPoint x="140" y="1370" as="targetPoint" />
            <Array as="points">
              <mxPoint x="40" y="1540" />
              <mxPoint x="110" y="1500" />
              <mxPoint x="130" y="1430" />
            </Array>
          </mxGeometry>
        </mxCell>
        <mxCell id="QSAhAxPXNk1GhNvLcbJa-250" value="" style="endArrow=none;html=1;labelBackgroundColor=#ffffff;strokeWidth=2;fillColor=#F45B69;fontSize=16;fontColor=#FFFFFF;curved=1;strokeColor=#04E0FC;" edge="1" parent="1">
          <mxGeometry width="50" height="50" relative="1" as="geometry">
            <mxPoint x="-10" y="510" as="sourcePoint" />
            <mxPoint x="150" y="320" as="targetPoint" />
            <Array as="points">
              <mxPoint x="50" y="490" />
              <mxPoint x="120" y="450" />
              <mxPoint x="140" y="380" />
            </Array>
          </mxGeometry>
        </mxCell>
        <mxCell id="QSAhAxPXNk1GhNvLcbJa-251" value="" style="endArrow=none;html=1;labelBackgroundColor=#ffffff;strokeWidth=2;fillColor=#F45B69;fontSize=16;fontColor=#FFFFFF;curved=1;strokeColor=#04E0FC;" edge="1" parent="1">
          <mxGeometry width="50" height="50" relative="1" as="geometry">
            <mxPoint x="-30" y="1220" as="sourcePoint" />
            <mxPoint x="190" y="970" as="targetPoint" />
            <Array as="points">
              <mxPoint x="80" y="1180" />
              <mxPoint x="150" y="1140" />
              <mxPoint x="170" y="1070" />
            </Array>
          </mxGeometry>
        </mxCell>
        <mxCell id="QSAhAxPXNk1GhNvLcbJa-252" value="" style="endArrow=none;html=1;labelBackgroundColor=#ffffff;strokeWidth=2;fillColor=#F45B69;fontSize=16;fontColor=#FFFFFF;curved=1;strokeColor=#04DEFA;" edge="1" parent="1">
          <mxGeometry width="50" height="50" relative="1" as="geometry">
            <mxPoint x="-30" y="1640" as="sourcePoint" />
            <mxPoint x="190" y="1390" as="targetPoint" />
            <Array as="points">
              <mxPoint x="80" y="1600" />
              <mxPoint x="150" y="1560" />
              <mxPoint x="170" y="1490" />
            </Array>
          </mxGeometry>
        </mxCell>
        <mxCell id="QSAhAxPXNk1GhNvLcbJa-253" value="" style="endArrow=none;html=1;labelBackgroundColor=#ffffff;strokeWidth=2;fillColor=#F45B69;fontSize=16;fontColor=#FFFFFF;curved=1;strokeColor=#04DEFA;" edge="1" parent="1">
          <mxGeometry width="50" height="50" relative="1" as="geometry">
            <mxPoint x="-10" y="1680" as="sourcePoint" />
            <mxPoint x="230" y="1420" as="targetPoint" />
            <Array as="points">
              <mxPoint x="80" y="1650" />
              <mxPoint x="170" y="1590" />
              <mxPoint x="220" y="1520" />
            </Array>
          </mxGeometry>
        </mxCell>
        <mxCell id="QSAhAxPXNk1GhNvLcbJa-254" value="" style="endArrow=none;html=1;labelBackgroundColor=#ffffff;strokeWidth=2;fillColor=#F45B69;fontSize=16;fontColor=#FFFFFF;curved=1;strokeColor=#04E0FC;" edge="1" parent="1">
          <mxGeometry width="50" height="50" relative="1" as="geometry">
            <mxPoint x="-10" y="840" as="sourcePoint" />
            <mxPoint x="150" y="650" as="targetPoint" />
            <Array as="points">
              <mxPoint x="50" y="820" />
              <mxPoint x="120" y="780" />
              <mxPoint x="140" y="710" />
            </Array>
          </mxGeometry>
        </mxCell>
      </root>
    </mxGraphModel>
  </diagram>
</mxfile>
